<svg width="781" height="160" viewBox="0 0 781 160" fill="none" xmlns="http://www.w3.org/2000/svg">
<g filter="url(#filter0_d)">
<path fill-rule="evenodd" clip-rule="evenodd" d="M-8 143H246V29H-8V143Z" fill="#FFF323"/>
<path fill-rule="evenodd" clip-rule="evenodd" d="M281 2L246 29.0564V143L281 116.307V2Z" fill="#F9E224"/>
<path fill-rule="evenodd" clip-rule="evenodd" d="M281 2V116.307L315 143V29.0564L281 2Z" fill="#D2BF1E"/>
<path fill-rule="evenodd" clip-rule="evenodd" d="M664.918 28.0013H312V141.999H664.918V154L767 85.0017L664.918 16V28.0013Z" fill="#FFF323"/>
<path d="M388.418 57.8203H400.289V72.1172H401.801V78.75H398.918V75H388.102V78.75H385.219V72.1172H386.672C387.383 70.6484 387.852 68.9453 388.078 67.0078C388.305 65.0625 388.418 62.6055 388.418 59.6367V57.8203ZM391.723 60.7031C391.723 65.9219 391.25 69.7266 390.305 72.1172H396.832V60.7031H391.723ZM403.441 66.5156C403.441 64.7656 403.703 63.2969 404.227 62.1094C404.617 61.2344 405.148 60.4492 405.82 59.7539C406.5 59.0586 407.242 58.543 408.047 58.207C409.117 57.7539 410.352 57.5273 411.75 57.5273C414.281 57.5273 416.305 58.3125 417.82 59.8828C419.344 61.4531 420.105 63.6367 420.105 66.4336C420.105 69.207 419.352 71.3789 417.844 72.9492C416.336 74.5117 414.32 75.293 411.797 75.293C409.242 75.293 407.211 74.5156 405.703 72.9609C404.195 71.3984 403.441 69.25 403.441 66.5156ZM407.016 66.3984C407.016 68.3438 407.465 69.8203 408.363 70.8281C409.262 71.8281 410.402 72.3281 411.785 72.3281C413.168 72.3281 414.301 71.832 415.184 70.8398C416.074 69.8398 416.52 68.3438 416.52 66.3516C416.52 64.3828 416.086 62.9141 415.219 61.9453C414.359 60.9766 413.215 60.4922 411.785 60.4922C410.355 60.4922 409.203 60.9844 408.328 61.9688C407.453 62.9453 407.016 64.4219 407.016 66.3984ZM422.895 57.8203H435.738V60.7031H426.363V64.6875H431.004C432.285 64.6875 433.348 64.8438 434.191 65.1562C435.035 65.4688 435.754 66.0469 436.348 66.8906C436.949 67.7344 437.25 68.7227 437.25 69.8555C437.25 71.0195 436.949 72.0156 436.348 72.8438C435.746 73.6719 435.059 74.2383 434.285 74.543C433.52 74.8477 432.426 75 431.004 75H422.895V57.8203ZM426.363 72.1172H429.738C430.816 72.1172 431.574 72.0664 432.012 71.9648C432.449 71.8555 432.828 71.6133 433.148 71.2383C433.477 70.8633 433.641 70.4023 433.641 69.8555C433.641 69.0586 433.355 68.4805 432.785 68.1211C432.223 67.7539 431.258 67.5703 429.891 67.5703H426.363V72.1172ZM454.652 75H450.879L449.379 71.0977H442.512L441.094 75H437.414L444.105 57.8203H447.773L454.652 75ZM448.266 68.2031L445.898 61.8281L443.578 68.2031H448.266ZM456.516 57.8203H463.383C464.742 57.8203 465.754 57.8789 466.418 57.9961C467.09 58.1055 467.688 58.3398 468.211 58.6992C468.742 59.0586 469.184 59.5391 469.535 60.1406C469.887 60.7344 470.062 61.4023 470.062 62.1445C470.062 62.9492 469.844 63.6875 469.406 64.3594C468.977 65.0312 468.391 65.5352 467.648 65.8711C468.695 66.1758 469.5 66.6953 470.062 67.4297C470.625 68.1641 470.906 69.0273 470.906 70.0195C470.906 70.8008 470.723 71.5625 470.355 72.3047C469.996 73.0391 469.5 73.6289 468.867 74.0742C468.242 74.5117 467.469 74.7812 466.547 74.8828C465.969 74.9453 464.574 74.9844 462.363 75H456.516V57.8203ZM459.984 60.6797V64.6523H462.258C463.609 64.6523 464.449 64.6328 464.777 64.5938C465.371 64.5234 465.836 64.3203 466.172 63.9844C466.516 63.6406 466.688 63.1914 466.688 62.6367C466.688 62.1055 466.539 61.6758 466.242 61.3477C465.953 61.0117 465.52 60.8086 464.941 60.7383C464.598 60.6992 463.609 60.6797 461.977 60.6797H459.984ZM459.984 67.5117V72.1055H463.195C464.445 72.1055 465.238 72.0703 465.574 72C466.09 71.9062 466.508 71.6797 466.828 71.3203C467.156 70.9531 467.32 70.4648 467.32 69.8555C467.32 69.3398 467.195 68.9023 466.945 68.543C466.695 68.1836 466.332 67.9219 465.855 67.7578C465.387 67.5938 464.363 67.5117 462.785 67.5117H459.984ZM474.469 57.8203H486.504V75H483.035V60.7266H477.867V68.0625C477.867 70.1641 477.797 71.6328 477.656 72.4688C477.516 73.2969 477.172 73.9453 476.625 74.4141C476.086 74.875 475.238 75.1055 474.082 75.1055C473.676 75.1055 472.938 75.0664 471.867 74.9883V72.3047L472.641 72.3164C473.367 72.3164 473.855 72.2188 474.105 72.0234C474.355 71.8281 474.48 71.3477 474.48 70.582L474.469 67.6289V57.8203ZM500.367 75V67.8281H499.664C498.57 67.8281 497.797 67.9922 497.344 68.3203C496.898 68.6484 496.133 69.6289 495.047 71.2617L492.539 75H488.391L490.488 71.6484C491.316 70.3203 491.977 69.3906 492.469 68.8594C492.961 68.3203 493.578 67.8398 494.32 67.418C492.719 67.168 491.562 66.6133 490.852 65.7539C490.141 64.8867 489.785 63.8516 489.785 62.6484C489.785 61.6016 490.047 60.6758 490.57 59.8711C491.102 59.0586 491.797 58.5156 492.656 58.2422C493.523 57.9609 494.816 57.8203 496.535 57.8203H503.836V75H500.367ZM500.367 60.7266H497.66C496.285 60.7266 495.379 60.7578 494.941 60.8203C494.512 60.8828 494.141 61.0938 493.828 61.4531C493.516 61.8125 493.359 62.2812 493.359 62.8594C493.359 63.4609 493.508 63.9414 493.805 64.3008C494.109 64.6523 494.492 64.8711 494.953 64.957C495.422 65.043 496.371 65.0859 497.801 65.0859H500.367V60.7266ZM507.387 57.8203H510.633V69.2578L517.594 57.8203H521.051V75H517.805V63.7852L510.855 75H507.387V57.8203ZM516.293 53.543H517.898C517.805 54.6055 517.43 55.4414 516.773 56.0508C516.125 56.6523 515.281 56.9531 514.242 56.9531C513.203 56.9531 512.355 56.6523 511.699 56.0508C511.051 55.4414 510.68 54.6055 510.586 53.543H512.191C512.246 54.0977 512.441 54.5195 512.777 54.8086C513.113 55.0898 513.602 55.2305 514.242 55.2305C514.883 55.2305 515.371 55.0898 515.707 54.8086C516.043 54.5195 516.238 54.0977 516.293 53.543ZM528.457 75V60.7266H523.359V57.8203H537.012V60.7266H531.926V75H528.457ZM539.262 75V57.8203H552V60.7266H542.73V64.5352H551.355V67.4297H542.73V72.1055H552.328V75H539.262ZM572.941 68.6836L576.305 69.75C575.789 71.625 574.93 73.0195 573.727 73.9336C572.531 74.8398 571.012 75.293 569.168 75.293C566.887 75.293 565.012 74.5156 563.543 72.9609C562.074 71.3984 561.34 69.2656 561.34 66.5625C561.34 63.7031 562.078 61.4844 563.555 59.9062C565.031 58.3203 566.973 57.5273 569.379 57.5273C571.48 57.5273 573.188 58.1484 574.5 59.3906C575.281 60.125 575.867 61.1797 576.258 62.5547L572.824 63.375C572.621 62.4844 572.195 61.7812 571.547 61.2656C570.906 60.75 570.125 60.4922 569.203 60.4922C567.93 60.4922 566.895 60.9492 566.098 61.8633C565.309 62.7773 564.914 64.2578 564.914 66.3047C564.914 68.4766 565.305 70.0234 566.086 70.9453C566.867 71.8672 567.883 72.3281 569.133 72.3281C570.055 72.3281 570.848 72.0352 571.512 71.4492C572.176 70.8633 572.652 69.9414 572.941 68.6836ZM579.305 57.8203H586.172C587.531 57.8203 588.543 57.8789 589.207 57.9961C589.879 58.1055 590.477 58.3398 591 58.6992C591.531 59.0586 591.973 59.5391 592.324 60.1406C592.676 60.7344 592.852 61.4023 592.852 62.1445C592.852 62.9492 592.633 63.6875 592.195 64.3594C591.766 65.0312 591.18 65.5352 590.438 65.8711C591.484 66.1758 592.289 66.6953 592.852 67.4297C593.414 68.1641 593.695 69.0273 593.695 70.0195C593.695 70.8008 593.512 71.5625 593.145 72.3047C592.785 73.0391 592.289 73.6289 591.656 74.0742C591.031 74.5117 590.258 74.7812 589.336 74.8828C588.758 74.9453 587.363 74.9844 585.152 75H579.305V57.8203ZM582.773 60.6797V64.6523H585.047C586.398 64.6523 587.238 64.6328 587.566 64.5938C588.16 64.5234 588.625 64.3203 588.961 63.9844C589.305 63.6406 589.477 63.1914 589.477 62.6367C589.477 62.1055 589.328 61.6758 589.031 61.3477C588.742 61.0117 588.309 60.8086 587.73 60.7383C587.387 60.6992 586.398 60.6797 584.766 60.6797H582.773ZM582.773 67.5117V72.1055H585.984C587.234 72.1055 588.027 72.0703 588.363 72C588.879 71.9062 589.297 71.6797 589.617 71.3203C589.945 70.9531 590.109 70.4648 590.109 69.8555C590.109 69.3398 589.984 68.9023 589.734 68.543C589.484 68.1836 589.121 67.9219 588.645 67.7578C588.176 67.5938 587.152 67.5117 585.574 67.5117H582.773ZM595.324 66.5156C595.324 64.7656 595.586 63.2969 596.109 62.1094C596.5 61.2344 597.031 60.4492 597.703 59.7539C598.383 59.0586 599.125 58.543 599.93 58.207C601 57.7539 602.234 57.5273 603.633 57.5273C606.164 57.5273 608.188 58.3125 609.703 59.8828C611.227 61.4531 611.988 63.6367 611.988 66.4336C611.988 69.207 611.234 71.3789 609.727 72.9492C608.219 74.5117 606.203 75.293 603.68 75.293C601.125 75.293 599.094 74.5156 597.586 72.9609C596.078 71.3984 595.324 69.25 595.324 66.5156ZM598.898 66.3984C598.898 68.3438 599.348 69.8203 600.246 70.8281C601.145 71.8281 602.285 72.3281 603.668 72.3281C605.051 72.3281 606.184 71.832 607.066 70.8398C607.957 69.8398 608.402 68.3438 608.402 66.3516C608.402 64.3828 607.969 62.9141 607.102 61.9453C606.242 60.9766 605.098 60.4922 603.668 60.4922C602.238 60.4922 601.086 60.9844 600.211 61.9688C599.336 62.9453 598.898 64.4219 598.898 66.3984ZM614.719 57.8203H618.188V64.9922H620.977C621.18 62.875 621.926 61.1016 623.215 59.6719C624.504 58.2422 626.379 57.5273 628.84 57.5273C631.207 57.5273 633.09 58.293 634.488 59.8242C635.887 61.3555 636.586 63.543 636.586 66.3867C636.586 68.2461 636.281 69.8359 635.672 71.1562C635.062 72.4688 634.199 73.4883 633.082 74.2148C631.973 74.9336 630.59 75.293 628.934 75.293C627.246 75.293 625.902 75.0273 624.902 74.4961C623.91 73.9648 623.039 73.1055 622.289 71.918C621.547 70.7305 621.109 69.3828 620.977 67.875H618.188V75H614.719V57.8203ZM624.445 66.4336C624.445 68.3398 624.824 69.8125 625.582 70.8516C626.34 71.8828 627.406 72.3984 628.781 72.3984C630.195 72.3984 631.254 71.8867 631.957 70.8633C632.668 69.832 633.023 68.2891 633.023 66.2344C633.023 64.2656 632.613 62.8242 631.793 61.9102C630.98 60.9961 629.938 60.5391 628.664 60.5391C627.422 60.5391 626.406 61.0039 625.617 61.9336C624.836 62.8555 624.445 64.3555 624.445 66.4336ZM395.766 84.8203H407.402V87.7031H399.234V102H395.766V84.8203ZM409.207 102V84.8203H414.773C416.883 84.8203 418.258 84.9062 418.898 85.0781C419.883 85.3359 420.707 85.8984 421.371 86.7656C422.035 87.625 422.367 88.7383 422.367 90.1055C422.367 91.1602 422.176 92.0469 421.793 92.7656C421.41 93.4844 420.922 94.0508 420.328 94.4648C419.742 94.8711 419.145 95.1406 418.535 95.2734C417.707 95.4375 416.508 95.5195 414.938 95.5195H412.676V102H409.207ZM412.676 87.7266V92.6016H414.574C415.941 92.6016 416.855 92.5117 417.316 92.332C417.777 92.1523 418.137 91.8711 418.395 91.4883C418.66 91.1055 418.793 90.6602 418.793 90.1523C418.793 89.5273 418.609 89.0117 418.242 88.6055C417.875 88.1992 417.41 87.9453 416.848 87.8438C416.434 87.7656 415.602 87.7266 414.352 87.7266H412.676ZM423.141 84.8203H427.02L431.027 93.7383L434.449 84.8203H438.07L432.27 97.875C431.637 99.2891 430.992 100.367 430.336 101.109C429.68 101.844 428.832 102.211 427.793 102.211C426.77 102.211 425.969 102.145 425.391 102.012V99.4336C425.883 99.4648 426.328 99.4805 426.727 99.4805C427.531 99.4805 428.105 99.3359 428.449 99.0469C428.801 98.75 429.137 98.1172 429.457 97.1484L423.141 84.8203ZM439.863 84.8203H453.527V102H450.059V87.7031H443.332V102H439.863V84.8203ZM457.113 84.8203H470.777V102H467.309V87.7031H460.582V102H457.113V84.8203ZM472.57 84.8203H476.449L480.457 93.7383L483.879 84.8203H487.5L481.699 97.875C481.066 99.2891 480.422 100.367 479.766 101.109C479.109 101.844 478.262 102.211 477.223 102.211C476.199 102.211 475.398 102.145 474.82 102.012V99.4336C475.312 99.4648 475.758 99.4805 476.156 99.4805C476.961 99.4805 477.535 99.3359 477.879 99.0469C478.23 98.75 478.566 98.1172 478.887 97.1484L472.57 84.8203ZM495.223 93.5156C495.223 91.7656 495.484 90.2969 496.008 89.1094C496.398 88.2344 496.93 87.4492 497.602 86.7539C498.281 86.0586 499.023 85.543 499.828 85.207C500.898 84.7539 502.133 84.5273 503.531 84.5273C506.062 84.5273 508.086 85.3125 509.602 86.8828C511.125 88.4531 511.887 90.6367 511.887 93.4336C511.887 96.207 511.133 98.3789 509.625 99.9492C508.117 101.512 506.102 102.293 503.578 102.293C501.023 102.293 498.992 101.516 497.484 99.9609C495.977 98.3984 495.223 96.25 495.223 93.5156ZM498.797 93.3984C498.797 95.3438 499.246 96.8203 500.145 97.8281C501.043 98.8281 502.184 99.3281 503.566 99.3281C504.949 99.3281 506.082 98.832 506.965 97.8398C507.855 96.8398 508.301 95.3438 508.301 93.3516C508.301 91.3828 507.867 89.9141 507 88.9453C506.141 87.9766 504.996 87.4922 503.566 87.4922C502.137 87.4922 500.984 87.9844 500.109 88.9688C499.234 89.9453 498.797 91.4219 498.797 93.3984ZM514.676 84.8203H527.52V87.7031H518.145V91.6875H522.785C524.066 91.6875 525.129 91.8438 525.973 92.1562C526.816 92.4688 527.535 93.0469 528.129 93.8906C528.73 94.7344 529.031 95.7227 529.031 96.8555C529.031 98.0195 528.73 99.0156 528.129 99.8438C527.527 100.672 526.84 101.238 526.066 101.543C525.301 101.848 524.207 102 522.785 102H514.676V84.8203ZM518.145 99.1172H521.52C522.598 99.1172 523.355 99.0664 523.793 98.9648C524.23 98.8555 524.609 98.6133 524.93 98.2383C525.258 97.8633 525.422 97.4023 525.422 96.8555C525.422 96.0586 525.137 95.4805 524.566 95.1211C524.004 94.7539 523.039 94.5703 521.672 94.5703H518.145V99.1172ZM529.5 84.8203H533.379L537.387 93.7383L540.809 84.8203H544.43L538.629 97.875C537.996 99.2891 537.352 100.367 536.695 101.109C536.039 101.844 535.191 102.211 534.152 102.211C533.129 102.211 532.328 102.145 531.75 102.012V99.4336C532.242 99.4648 532.688 99.4805 533.086 99.4805C533.891 99.4805 534.465 99.3359 534.809 99.0469C535.16 98.75 535.496 98.1172 535.816 97.1484L529.5 84.8203ZM545.895 84.8203H549.363V88.9219C549.363 90.25 549.41 91.1328 549.504 91.5703C549.605 92 549.898 92.375 550.383 92.6953C550.867 93.0156 551.578 93.1758 552.516 93.1758C553.258 93.1758 553.918 93.0977 554.496 92.9414C555.074 92.7773 555.574 92.5391 555.996 92.2266V84.8203H559.465V102H555.996V95.0859C555.293 95.3984 554.602 95.6367 553.922 95.8008C553.242 95.957 552.574 96.0352 551.918 96.0352C550.207 96.0352 548.773 95.6328 547.617 94.8281C546.469 94.0156 545.895 92.6133 545.895 90.6211V84.8203ZM563.051 102V84.8203H575.789V87.7266H566.52V91.5352H575.145V94.4297H566.52V99.1055H576.117V102H563.051ZM579.07 102V84.8203H582.539V91.582H589.336V84.8203H592.805V102H589.336V94.4883H582.539V102H579.07ZM596.449 84.8203H599.695V96.2578L606.656 84.8203H610.113V102H606.867V90.7852L599.918 102H596.449V84.8203ZM623.93 102V94.8281H623.227C622.133 94.8281 621.359 94.9922 620.906 95.3203C620.461 95.6484 619.695 96.6289 618.609 98.2617L616.102 102H611.953L614.051 98.6484C614.879 97.3203 615.539 96.3906 616.031 95.8594C616.523 95.3203 617.141 94.8398 617.883 94.418C616.281 94.168 615.125 93.6133 614.414 92.7539C613.703 91.8867 613.348 90.8516 613.348 89.6484C613.348 88.6016 613.609 87.6758 614.133 86.8711C614.664 86.0586 615.359 85.5156 616.219 85.2422C617.086 84.9609 618.379 84.8203 620.098 84.8203H627.398V102H623.93ZM623.93 87.7266H621.223C619.848 87.7266 618.941 87.7578 618.504 87.8203C618.074 87.8828 617.703 88.0938 617.391 88.4531C617.078 88.8125 616.922 89.2812 616.922 89.8594C616.922 90.4609 617.07 90.9414 617.367 91.3008C617.672 91.6523 618.055 91.8711 618.516 91.957C618.984 92.043 619.934 92.0859 621.363 92.0859H623.93V87.7266Z" fill="black"/>
</g>
<defs>
<filter id="filter0_d" x="-8" y="0" width="789" height="160" filterUnits="userSpaceOnUse" color-interpolation-filters="sRGB">
<feFlood flood-opacity="0" result="BackgroundImageFix"/>
<feColorMatrix in="SourceAlpha" type="matrix" values="0 0 0 0 0 0 0 0 0 0 0 0 0 0 0 0 0 0 127 0"/>
<feOffset dx="10" dy="2"/>
<feGaussianBlur stdDeviation="2"/>
<feColorMatrix type="matrix" values="0 0 0 0 0 0 0 0 0 0 0 0 0 0 0 0 0 0 0.5 0"/>
<feBlend mode="normal" in2="BackgroundImageFix" result="effect1_dropShadow"/>
<feBlend mode="normal" in="SourceGraphic" in2="effect1_dropShadow" result="shape"/>
</filter>
</defs>
</svg>
