<svg width="749" height="146" viewBox="0 0 749 146" fill="none" xmlns="http://www.w3.org/2000/svg">
<g filter="url(#filter0_d)">
<path fill-rule="evenodd" clip-rule="evenodd" d="M755 128H378V14H755V128Z" fill="white"/>
<path fill-rule="evenodd" clip-rule="evenodd" d="M102.082 14.0013H455V127.999H102.082V140L0 71.0017L102.082 2V14.0013Z" fill="white"/>
<path d="M93.0977 59.6836L96.4609 60.75C95.9453 62.625 95.0859 64.0195 93.8828 64.9336C92.6875 65.8398 91.168 66.293 89.3242 66.293C87.043 66.293 85.168 65.5156 83.6992 63.9609C82.2305 62.3984 81.4961 60.2656 81.4961 57.5625C81.4961 54.7031 82.2344 52.4844 83.7109 50.9062C85.1875 49.3203 87.1289 48.5273 89.5352 48.5273C91.6367 48.5273 93.3438 49.1484 94.6562 50.3906C95.4375 51.125 96.0234 52.1797 96.4141 53.5547L92.9805 54.375C92.7773 53.4844 92.3516 52.7812 91.7031 52.2656C91.0625 51.75 90.2812 51.4922 89.3594 51.4922C88.0859 51.4922 87.0508 51.9492 86.2539 52.8633C85.4648 53.7773 85.0703 55.2578 85.0703 57.3047C85.0703 59.4766 85.4609 61.0234 86.2422 61.9453C87.0234 62.8672 88.0391 63.3281 89.2891 63.3281C90.2109 63.3281 91.0039 63.0352 91.668 62.4492C92.332 61.8633 92.8086 60.9414 93.0977 59.6836ZM100.07 48.8203H112.105V66H108.637V51.7266H103.469V59.0625C103.469 61.1641 103.398 62.6328 103.258 63.4688C103.117 64.2969 102.773 64.9453 102.227 65.4141C101.688 65.875 100.84 66.1055 99.6836 66.1055C99.2773 66.1055 98.5391 66.0664 97.4688 65.9883V63.3047L98.2422 63.3164C98.9688 63.3164 99.457 63.2188 99.707 63.0234C99.957 62.8281 100.082 62.3477 100.082 61.582L100.07 58.6289V48.8203ZM115.691 66V48.8203H128.43V51.7266H119.16V55.5352H127.785V58.4297H119.16V63.1055H128.758V66H115.691ZM133.082 48.8203H144.953V63.1172H146.465V69.75H143.582V66H132.766V69.75H129.883V63.1172H131.336C132.047 61.6484 132.516 59.9453 132.742 58.0078C132.969 56.0625 133.082 53.6055 133.082 50.6367V48.8203ZM136.387 51.7031C136.387 56.9219 135.914 60.7266 134.969 63.1172H141.496V51.7031H136.387ZM148.855 48.8203H152.102V60.2578L159.062 48.8203H162.52V66H159.273V54.7852L152.324 66H148.855V48.8203ZM169.926 66V51.7266H164.828V48.8203H178.48V51.7266H173.395V66H169.926ZM180.73 66V48.8203H193.469V51.7266H184.199V55.5352H192.824V58.4297H184.199V63.1055H193.797V66H180.73ZM205.867 53.5078L202.492 52.7227C203.219 49.9258 205.285 48.5273 208.691 48.5273C210.707 48.5273 212.227 48.9727 213.25 49.8633C214.281 50.7461 214.797 51.7852 214.797 52.9805C214.797 53.8008 214.562 54.543 214.094 55.207C213.625 55.8633 212.922 56.4414 211.984 56.9414C213.125 57.332 213.98 57.8867 214.551 58.6055C215.121 59.3164 215.406 60.1953 215.406 61.2422C215.406 62.75 214.852 63.9688 213.742 64.8984C212.641 65.8281 210.988 66.293 208.785 66.293C206.988 66.293 205.57 65.9961 204.531 65.4023C203.492 64.8008 202.711 63.6797 202.188 62.0391L205.363 60.9961C205.691 62.0273 206.125 62.6953 206.664 63C207.211 63.3047 207.883 63.457 208.68 63.457C209.773 63.457 210.57 63.2227 211.07 62.7539C211.57 62.2773 211.82 61.7344 211.82 61.125C211.82 60.4219 211.535 59.8555 210.965 59.4258C210.402 58.9961 209.551 58.7812 208.41 58.7812H207.625V56.1914H208.023C209.086 56.1914 209.898 55.9531 210.461 55.4766C211.023 55 211.305 54.3672 211.305 53.5781C211.305 52.9531 211.074 52.4258 210.613 51.9961C210.16 51.5664 209.508 51.3516 208.656 51.3516C207.203 51.3516 206.273 52.0703 205.867 53.5078ZM233.957 66H230.184L228.684 62.0977H221.816L220.398 66H216.719L223.41 48.8203H227.078L233.957 66ZM227.57 59.2031L225.203 52.8281L222.883 59.2031H227.57ZM242.535 48.8203H256.199V66H252.73V51.7031H246.004V66H242.535V48.8203ZM259.738 66V48.8203H265.305C267.414 48.8203 268.789 48.9062 269.43 49.0781C270.414 49.3359 271.238 49.8984 271.902 50.7656C272.566 51.625 272.898 52.7383 272.898 54.1055C272.898 55.1602 272.707 56.0469 272.324 56.7656C271.941 57.4844 271.453 58.0508 270.859 58.4648C270.273 58.8711 269.676 59.1406 269.066 59.2734C268.238 59.4375 267.039 59.5195 265.469 59.5195H263.207V66H259.738ZM263.207 51.7266V56.6016H265.105C266.473 56.6016 267.387 56.5117 267.848 56.332C268.309 56.1523 268.668 55.8711 268.926 55.4883C269.191 55.1055 269.324 54.6602 269.324 54.1523C269.324 53.5273 269.141 53.0117 268.773 52.6055C268.406 52.1992 267.941 51.9453 267.379 51.8438C266.965 51.7656 266.133 51.7266 264.883 51.7266H263.207ZM274.715 57.5156C274.715 55.7656 274.977 54.2969 275.5 53.1094C275.891 52.2344 276.422 51.4492 277.094 50.7539C277.773 50.0586 278.516 49.543 279.32 49.207C280.391 48.7539 281.625 48.5273 283.023 48.5273C285.555 48.5273 287.578 49.3125 289.094 50.8828C290.617 52.4531 291.379 54.6367 291.379 57.4336C291.379 60.207 290.625 62.3789 289.117 63.9492C287.609 65.5117 285.594 66.293 283.07 66.293C280.516 66.293 278.484 65.5156 276.977 63.9609C275.469 62.3984 274.715 60.25 274.715 57.5156ZM278.289 57.3984C278.289 59.3438 278.738 60.8203 279.637 61.8281C280.535 62.8281 281.676 63.3281 283.059 63.3281C284.441 63.3281 285.574 62.832 286.457 61.8398C287.348 60.8398 287.793 59.3438 287.793 57.3516C287.793 55.3828 287.359 53.9141 286.492 52.9453C285.633 51.9766 284.488 51.4922 283.059 51.4922C281.629 51.4922 280.477 51.9844 279.602 52.9688C278.727 53.9453 278.289 55.4219 278.289 57.3984ZM294.156 48.8203H297.625V63.1172H304.352V48.8203H307.82V63.1172H309.25V69.75H306.367V66H294.156V48.8203ZM311.629 66V48.8203H324.367V51.7266H315.098V55.5352H323.723V58.4297H315.098V63.1055H324.695V66H311.629ZM338.629 59.6836L341.992 60.75C341.477 62.625 340.617 64.0195 339.414 64.9336C338.219 65.8398 336.699 66.293 334.855 66.293C332.574 66.293 330.699 65.5156 329.23 63.9609C327.762 62.3984 327.027 60.2656 327.027 57.5625C327.027 54.7031 327.766 52.4844 329.242 50.9062C330.719 49.3203 332.66 48.5273 335.066 48.5273C337.168 48.5273 338.875 49.1484 340.188 50.3906C340.969 51.125 341.555 52.1797 341.945 53.5547L338.512 54.375C338.309 53.4844 337.883 52.7812 337.234 52.2656C336.594 51.75 335.812 51.4922 334.891 51.4922C333.617 51.4922 332.582 51.9492 331.785 52.8633C330.996 53.7773 330.602 55.2578 330.602 57.3047C330.602 59.4766 330.992 61.0234 331.773 61.9453C332.555 62.8672 333.57 63.3281 334.82 63.3281C335.742 63.3281 336.535 63.0352 337.199 62.4492C337.863 61.8633 338.34 60.9414 338.629 59.6836ZM355.973 59.6836L359.336 60.75C358.82 62.625 357.961 64.0195 356.758 64.9336C355.562 65.8398 354.043 66.293 352.199 66.293C349.918 66.293 348.043 65.5156 346.574 63.9609C345.105 62.3984 344.371 60.2656 344.371 57.5625C344.371 54.7031 345.109 52.4844 346.586 50.9062C348.062 49.3203 350.004 48.5273 352.41 48.5273C354.512 48.5273 356.219 49.1484 357.531 50.3906C358.312 51.125 358.898 52.1797 359.289 53.5547L355.855 54.375C355.652 53.4844 355.227 52.7812 354.578 52.2656C353.938 51.75 353.156 51.4922 352.234 51.4922C350.961 51.4922 349.926 51.9492 349.129 52.8633C348.34 53.7773 347.945 55.2578 347.945 57.3047C347.945 59.4766 348.336 61.0234 349.117 61.9453C349.898 62.8672 350.914 63.3281 352.164 63.3281C353.086 63.3281 353.879 63.0352 354.543 62.4492C355.207 61.8633 355.684 60.9414 355.973 59.6836ZM361.012 57.5156C361.012 55.7656 361.273 54.2969 361.797 53.1094C362.188 52.2344 362.719 51.4492 363.391 50.7539C364.07 50.0586 364.812 49.543 365.617 49.207C366.688 48.7539 367.922 48.5273 369.32 48.5273C371.852 48.5273 373.875 49.3125 375.391 50.8828C376.914 52.4531 377.676 54.6367 377.676 57.4336C377.676 60.207 376.922 62.3789 375.414 63.9492C373.906 65.5117 371.891 66.293 369.367 66.293C366.812 66.293 364.781 65.5156 363.273 63.9609C361.766 62.3984 361.012 60.25 361.012 57.5156ZM364.586 57.3984C364.586 59.3438 365.035 60.8203 365.934 61.8281C366.832 62.8281 367.973 63.3281 369.355 63.3281C370.738 63.3281 371.871 62.832 372.754 61.8398C373.645 60.8398 374.09 59.3438 374.09 57.3516C374.09 55.3828 373.656 53.9141 372.789 52.9453C371.93 51.9766 370.785 51.4922 369.355 51.4922C367.926 51.4922 366.773 51.9844 365.898 52.9688C365.023 53.9453 364.586 55.4219 364.586 57.3984ZM380.348 66V48.8203H385.539L388.656 60.5391L391.738 48.8203H396.941V66H393.719V52.4766L390.309 66H386.969L383.57 52.4766V66H380.348ZM173.055 84.5156C173.055 82.7656 173.316 81.2969 173.84 80.1094C174.23 79.2344 174.762 78.4492 175.434 77.7539C176.113 77.0586 176.855 76.543 177.66 76.207C178.73 75.7539 179.965 75.5273 181.363 75.5273C183.895 75.5273 185.918 76.3125 187.434 77.8828C188.957 79.4531 189.719 81.6367 189.719 84.4336C189.719 87.207 188.965 89.3789 187.457 90.9492C185.949 92.5117 183.934 93.293 181.41 93.293C178.855 93.293 176.824 92.5156 175.316 90.9609C173.809 89.3984 173.055 87.25 173.055 84.5156ZM176.629 84.3984C176.629 86.3438 177.078 87.8203 177.977 88.8281C178.875 89.8281 180.016 90.3281 181.398 90.3281C182.781 90.3281 183.914 89.832 184.797 88.8398C185.688 87.8398 186.133 86.3438 186.133 84.3516C186.133 82.3828 185.699 80.9141 184.832 79.9453C183.973 78.9766 182.828 78.4922 181.398 78.4922C179.969 78.4922 178.816 78.9844 177.941 79.9688C177.066 80.9453 176.629 82.4219 176.629 84.3984ZM192.508 75.8203H205.352V78.7031H195.977V82.6875H200.617C201.898 82.6875 202.961 82.8438 203.805 83.1562C204.648 83.4688 205.367 84.0469 205.961 84.8906C206.562 85.7344 206.863 86.7227 206.863 87.8555C206.863 89.0195 206.562 90.0156 205.961 90.8438C205.359 91.6719 204.672 92.2383 203.898 92.543C203.133 92.8477 202.039 93 200.617 93H192.508V75.8203ZM195.977 90.1172H199.352C200.43 90.1172 201.188 90.0664 201.625 89.9648C202.062 89.8555 202.441 89.6133 202.762 89.2383C203.09 88.8633 203.254 88.4023 203.254 87.8555C203.254 87.0586 202.969 86.4805 202.398 86.1211C201.836 85.7539 200.871 85.5703 199.504 85.5703H195.977V90.1172ZM207.332 75.8203H211.211L215.219 84.7383L218.641 75.8203H222.262L216.461 88.875C215.828 90.2891 215.184 91.3672 214.527 92.1094C213.871 92.8438 213.023 93.2109 211.984 93.2109C210.961 93.2109 210.16 93.1445 209.582 93.0117V90.4336C210.074 90.4648 210.52 90.4805 210.918 90.4805C211.723 90.4805 212.297 90.3359 212.641 90.0469C212.992 89.75 213.328 89.1172 213.648 88.1484L207.332 75.8203ZM223.727 75.8203H227.195V79.9219C227.195 81.25 227.242 82.1328 227.336 82.5703C227.438 83 227.73 83.375 228.215 83.6953C228.699 84.0156 229.41 84.1758 230.348 84.1758C231.09 84.1758 231.75 84.0977 232.328 83.9414C232.906 83.7773 233.406 83.5391 233.828 83.2266V75.8203H237.297V93H233.828V86.0859C233.125 86.3984 232.434 86.6367 231.754 86.8008C231.074 86.957 230.406 87.0352 229.75 87.0352C228.039 87.0352 226.605 86.6328 225.449 85.8281C224.301 85.0156 223.727 83.6133 223.727 81.6211V75.8203ZM240.883 93V75.8203H253.621V78.7266H244.352V82.5352H252.977V85.4297H244.352V90.1055H253.949V93H240.883ZM256.902 93V75.8203H260.371V82.582H267.168V75.8203H270.637V93H267.168V85.4883H260.371V93H256.902ZM274.281 75.8203H277.527V87.2578L284.488 75.8203H287.945V93H284.699V81.7852L277.75 93H274.281V75.8203ZM301.762 93V85.8281H301.059C299.965 85.8281 299.191 85.9922 298.738 86.3203C298.293 86.6484 297.527 87.6289 296.441 89.2617L293.934 93H289.785L291.883 89.6484C292.711 88.3203 293.371 87.3906 293.863 86.8594C294.355 86.3203 294.973 85.8398 295.715 85.418C294.113 85.168 292.957 84.6133 292.246 83.7539C291.535 82.8867 291.18 81.8516 291.18 80.6484C291.18 79.6016 291.441 78.6758 291.965 77.8711C292.496 77.0586 293.191 76.5156 294.051 76.2422C294.918 75.9609 296.211 75.8203 297.93 75.8203H305.23V93H301.762ZM301.762 78.7266H299.055C297.68 78.7266 296.773 78.7578 296.336 78.8203C295.906 78.8828 295.535 79.0938 295.223 79.4531C294.91 79.8125 294.754 80.2812 294.754 80.8594C294.754 81.4609 294.902 81.9414 295.199 82.3008C295.504 82.6523 295.887 82.8711 296.348 82.957C296.816 83.043 297.766 83.0859 299.195 83.0859H301.762V78.7266Z" fill="#7ED321"/>
</g>
<defs>
<filter id="filter0_d" x="0" y="0" width="769" height="146" filterUnits="userSpaceOnUse" color-interpolation-filters="sRGB">
<feFlood flood-opacity="0" result="BackgroundImageFix"/>
<feColorMatrix in="SourceAlpha" type="matrix" values="0 0 0 0 0 0 0 0 0 0 0 0 0 0 0 0 0 0 127 0"/>
<feOffset dx="10" dy="2"/>
<feGaussianBlur stdDeviation="2"/>
<feColorMatrix type="matrix" values="0 0 0 0 0 0 0 0 0 0 0 0 0 0 0 0 0 0 0.5 0"/>
<feBlend mode="normal" in2="BackgroundImageFix" result="effect1_dropShadow"/>
<feBlend mode="normal" in="SourceGraphic" in2="effect1_dropShadow" result="shape"/>
</filter>
</defs>
</svg>
