<svg width="928" height="160" viewBox="0 0 928 160" fill="none" xmlns="http://www.w3.org/2000/svg">
<g filter="url(#filter0_d)">
<path fill-rule="evenodd" clip-rule="evenodd" d="M945 143H521V29H945V143Z" fill="#FFF323"/>
<path fill-rule="evenodd" clip-rule="evenodd" d="M486 2L521 29.0564V143L486 116.307V2Z" fill="#F9E224"/>
<path fill-rule="evenodd" clip-rule="evenodd" d="M486 2V116.307L452 143V29.0564L486 2Z" fill="#D2BF1E"/>
<path fill-rule="evenodd" clip-rule="evenodd" d="M102.082 28.0013H455V141.999H102.082V154L0 85.0017L102.082 16V28.0013Z" fill="#FFF323"/>
<path d="M165.223 72.6836L168.586 73.75C168.07 75.625 167.211 77.0195 166.008 77.9336C164.812 78.8398 163.293 79.293 161.449 79.293C159.168 79.293 157.293 78.5156 155.824 76.9609C154.355 75.3984 153.621 73.2656 153.621 70.5625C153.621 67.7031 154.359 65.4844 155.836 63.9062C157.312 62.3203 159.254 61.5273 161.66 61.5273C163.762 61.5273 165.469 62.1484 166.781 63.3906C167.562 64.125 168.148 65.1797 168.539 66.5547L165.105 67.375C164.902 66.4844 164.477 65.7812 163.828 65.2656C163.188 64.75 162.406 64.4922 161.484 64.4922C160.211 64.4922 159.176 64.9492 158.379 65.8633C157.59 66.7773 157.195 68.2578 157.195 70.3047C157.195 72.4766 157.586 74.0234 158.367 74.9453C159.148 75.8672 160.164 76.3281 161.414 76.3281C162.336 76.3281 163.129 76.0352 163.793 75.4492C164.457 74.8633 164.934 73.9414 165.223 72.6836ZM170.262 70.5156C170.262 68.7656 170.523 67.2969 171.047 66.1094C171.438 65.2344 171.969 64.4492 172.641 63.7539C173.32 63.0586 174.062 62.543 174.867 62.207C175.938 61.7539 177.172 61.5273 178.57 61.5273C181.102 61.5273 183.125 62.3125 184.641 63.8828C186.164 65.4531 186.926 67.6367 186.926 70.4336C186.926 73.207 186.172 75.3789 184.664 76.9492C183.156 78.5117 181.141 79.293 178.617 79.293C176.062 79.293 174.031 78.5156 172.523 76.9609C171.016 75.3984 170.262 73.25 170.262 70.5156ZM173.836 70.3984C173.836 72.3438 174.285 73.8203 175.184 74.8281C176.082 75.8281 177.223 76.3281 178.605 76.3281C179.988 76.3281 181.121 75.832 182.004 74.8398C182.895 73.8398 183.34 72.3438 183.34 70.3516C183.34 68.3828 182.906 66.9141 182.039 65.9453C181.18 64.9766 180.035 64.4922 178.605 64.4922C177.176 64.4922 176.023 64.9844 175.148 65.9688C174.273 66.9453 173.836 68.4219 173.836 70.3984ZM192.094 66.5078L188.719 65.7227C189.445 62.9258 191.512 61.5273 194.918 61.5273C196.934 61.5273 198.453 61.9727 199.477 62.8633C200.508 63.7461 201.023 64.7852 201.023 65.9805C201.023 66.8008 200.789 67.543 200.32 68.207C199.852 68.8633 199.148 69.4414 198.211 69.9414C199.352 70.332 200.207 70.8867 200.777 71.6055C201.348 72.3164 201.633 73.1953 201.633 74.2422C201.633 75.75 201.078 76.9688 199.969 77.8984C198.867 78.8281 197.215 79.293 195.012 79.293C193.215 79.293 191.797 78.9961 190.758 78.4023C189.719 77.8008 188.938 76.6797 188.414 75.0391L191.59 73.9961C191.918 75.0273 192.352 75.6953 192.891 76C193.438 76.3047 194.109 76.457 194.906 76.457C196 76.457 196.797 76.2227 197.297 75.7539C197.797 75.2773 198.047 74.7344 198.047 74.125C198.047 73.4219 197.762 72.8555 197.191 72.4258C196.629 71.9961 195.777 71.7812 194.637 71.7812H193.852V69.1914H194.25C195.312 69.1914 196.125 68.9531 196.688 68.4766C197.25 68 197.531 67.3672 197.531 66.5781C197.531 65.9531 197.301 65.4258 196.84 64.9961C196.387 64.5664 195.734 64.3516 194.883 64.3516C193.43 64.3516 192.5 65.0703 192.094 66.5078ZM206.074 61.8203H217.945V76.1172H219.457V82.75H216.574V79H205.758V82.75H202.875V76.1172H204.328C205.039 74.6484 205.508 72.9453 205.734 71.0078C205.961 69.0625 206.074 66.6055 206.074 63.6367V61.8203ZM209.379 64.7031C209.379 69.9219 208.906 73.7266 207.961 76.1172H214.488V64.7031H209.379ZM237.293 79H233.52L232.02 75.0977H225.152L223.734 79H220.055L226.746 61.8203H230.414L237.293 79ZM230.906 72.2031L228.539 65.8281L226.219 72.2031H230.906ZM239.191 61.8203H242.438V73.2578L249.398 61.8203H252.855V79H249.609V67.7852L242.66 79H239.191V61.8203ZM248.098 57.543H249.703C249.609 58.6055 249.234 59.4414 248.578 60.0508C247.93 60.6523 247.086 60.9531 246.047 60.9531C245.008 60.9531 244.16 60.6523 243.504 60.0508C242.855 59.4414 242.484 58.6055 242.391 57.543H243.996C244.051 58.0977 244.246 58.5195 244.582 58.8086C244.918 59.0898 245.406 59.2305 246.047 59.2305C246.688 59.2305 247.176 59.0898 247.512 58.8086C247.848 58.5195 248.043 58.0977 248.098 57.543ZM260.262 79V64.7266H255.164V61.8203H268.816V64.7266H263.73V79H260.262ZM271.066 79V61.8203H283.805V64.7266H274.535V68.5352H283.16V71.4297H274.535V76.1055H284.133V79H271.066ZM304.746 72.6836L308.109 73.75C307.594 75.625 306.734 77.0195 305.531 77.9336C304.336 78.8398 302.816 79.293 300.973 79.293C298.691 79.293 296.816 78.5156 295.348 76.9609C293.879 75.3984 293.145 73.2656 293.145 70.5625C293.145 67.7031 293.883 65.4844 295.359 63.9062C296.836 62.3203 298.777 61.5273 301.184 61.5273C303.285 61.5273 304.992 62.1484 306.305 63.3906C307.086 64.125 307.672 65.1797 308.062 66.5547L304.629 67.375C304.426 66.4844 304 65.7812 303.352 65.2656C302.711 64.75 301.93 64.4922 301.008 64.4922C299.734 64.4922 298.699 64.9492 297.902 65.8633C297.113 66.7773 296.719 68.2578 296.719 70.3047C296.719 72.4766 297.109 74.0234 297.891 74.9453C298.672 75.8672 299.688 76.3281 300.938 76.3281C301.859 76.3281 302.652 76.0352 303.316 75.4492C303.98 74.8633 304.457 73.9414 304.746 72.6836ZM311.109 61.8203H317.977C319.336 61.8203 320.348 61.8789 321.012 61.9961C321.684 62.1055 322.281 62.3398 322.805 62.6992C323.336 63.0586 323.777 63.5391 324.129 64.1406C324.48 64.7344 324.656 65.4023 324.656 66.1445C324.656 66.9492 324.438 67.6875 324 68.3594C323.57 69.0312 322.984 69.5352 322.242 69.8711C323.289 70.1758 324.094 70.6953 324.656 71.4297C325.219 72.1641 325.5 73.0273 325.5 74.0195C325.5 74.8008 325.316 75.5625 324.949 76.3047C324.59 77.0391 324.094 77.6289 323.461 78.0742C322.836 78.5117 322.062 78.7812 321.141 78.8828C320.562 78.9453 319.168 78.9844 316.957 79H311.109V61.8203ZM314.578 64.6797V68.6523H316.852C318.203 68.6523 319.043 68.6328 319.371 68.5938C319.965 68.5234 320.43 68.3203 320.766 67.9844C321.109 67.6406 321.281 67.1914 321.281 66.6367C321.281 66.1055 321.133 65.6758 320.836 65.3477C320.547 65.0117 320.113 64.8086 319.535 64.7383C319.191 64.6992 318.203 64.6797 316.57 64.6797H314.578ZM314.578 71.5117V76.1055H317.789C319.039 76.1055 319.832 76.0703 320.168 76C320.684 75.9062 321.102 75.6797 321.422 75.3203C321.75 74.9531 321.914 74.4648 321.914 73.8555C321.914 73.3398 321.789 72.9023 321.539 72.543C321.289 72.1836 320.926 71.9219 320.449 71.7578C319.98 71.5938 318.957 71.5117 317.379 71.5117H314.578ZM327.129 70.5156C327.129 68.7656 327.391 67.2969 327.914 66.1094C328.305 65.2344 328.836 64.4492 329.508 63.7539C330.188 63.0586 330.93 62.543 331.734 62.207C332.805 61.7539 334.039 61.5273 335.438 61.5273C337.969 61.5273 339.992 62.3125 341.508 63.8828C343.031 65.4531 343.793 67.6367 343.793 70.4336C343.793 73.207 343.039 75.3789 341.531 76.9492C340.023 78.5117 338.008 79.293 335.484 79.293C332.93 79.293 330.898 78.5156 329.391 76.9609C327.883 75.3984 327.129 73.25 327.129 70.5156ZM330.703 70.3984C330.703 72.3438 331.152 73.8203 332.051 74.8281C332.949 75.8281 334.09 76.3281 335.473 76.3281C336.855 76.3281 337.988 75.832 338.871 74.8398C339.762 73.8398 340.207 72.3438 340.207 70.3516C340.207 68.3828 339.773 66.9141 338.906 65.9453C338.047 64.9766 336.902 64.4922 335.473 64.4922C334.043 64.4922 332.891 64.9844 332.016 65.9688C331.141 66.9453 330.703 68.4219 330.703 70.3984ZM346.523 61.8203H349.992V68.9922H352.781C352.984 66.875 353.73 65.1016 355.02 63.6719C356.309 62.2422 358.184 61.5273 360.645 61.5273C363.012 61.5273 364.895 62.293 366.293 63.8242C367.691 65.3555 368.391 67.543 368.391 70.3867C368.391 72.2461 368.086 73.8359 367.477 75.1562C366.867 76.4688 366.004 77.4883 364.887 78.2148C363.777 78.9336 362.395 79.293 360.738 79.293C359.051 79.293 357.707 79.0273 356.707 78.4961C355.715 77.9648 354.844 77.1055 354.094 75.918C353.352 74.7305 352.914 73.3828 352.781 71.875H349.992V79H346.523V61.8203ZM356.25 70.4336C356.25 72.3398 356.629 73.8125 357.387 74.8516C358.145 75.8828 359.211 76.3984 360.586 76.3984C362 76.3984 363.059 75.8867 363.762 74.8633C364.473 73.832 364.828 72.2891 364.828 70.2344C364.828 68.2656 364.418 66.8242 363.598 65.9102C362.785 64.9961 361.742 64.5391 360.469 64.5391C359.227 64.5391 358.211 65.0039 357.422 65.9336C356.641 66.8555 356.25 68.3555 356.25 70.4336ZM145.266 88.8203H156.902V91.7031H148.734V106H145.266V88.8203ZM158.707 106V88.8203H164.273C166.383 88.8203 167.758 88.9062 168.398 89.0781C169.383 89.3359 170.207 89.8984 170.871 90.7656C171.535 91.625 171.867 92.7383 171.867 94.1055C171.867 95.1602 171.676 96.0469 171.293 96.7656C170.91 97.4844 170.422 98.0508 169.828 98.4648C169.242 98.8711 168.645 99.1406 168.035 99.2734C167.207 99.4375 166.008 99.5195 164.438 99.5195H162.176V106H158.707ZM162.176 91.7266V96.6016H164.074C165.441 96.6016 166.355 96.5117 166.816 96.332C167.277 96.1523 167.637 95.8711 167.895 95.4883C168.16 95.1055 168.293 94.6602 168.293 94.1523C168.293 93.5273 168.109 93.0117 167.742 92.6055C167.375 92.1992 166.91 91.9453 166.348 91.8438C165.934 91.7656 165.102 91.7266 163.852 91.7266H162.176ZM172.641 88.8203H176.52L180.527 97.7383L183.949 88.8203H187.57L181.77 101.875C181.137 103.289 180.492 104.367 179.836 105.109C179.18 105.844 178.332 106.211 177.293 106.211C176.27 106.211 175.469 106.145 174.891 106.012V103.434C175.383 103.465 175.828 103.48 176.227 103.48C177.031 103.48 177.605 103.336 177.949 103.047C178.301 102.75 178.637 102.117 178.957 101.148L172.641 88.8203ZM189.363 88.8203H203.027V106H199.559V91.7031H192.832V106H189.363V88.8203ZM206.613 88.8203H220.277V106H216.809V91.7031H210.082V106H206.613V88.8203ZM222.07 88.8203H225.949L229.957 97.7383L233.379 88.8203H237L231.199 101.875C230.566 103.289 229.922 104.367 229.266 105.109C228.609 105.844 227.762 106.211 226.723 106.211C225.699 106.211 224.898 106.145 224.32 106.012V103.434C224.812 103.465 225.258 103.48 225.656 103.48C226.461 103.48 227.035 103.336 227.379 103.047C227.73 102.75 228.066 102.117 228.387 101.148L222.07 88.8203ZM244.723 97.5156C244.723 95.7656 244.984 94.2969 245.508 93.1094C245.898 92.2344 246.43 91.4492 247.102 90.7539C247.781 90.0586 248.523 89.543 249.328 89.207C250.398 88.7539 251.633 88.5273 253.031 88.5273C255.562 88.5273 257.586 89.3125 259.102 90.8828C260.625 92.4531 261.387 94.6367 261.387 97.4336C261.387 100.207 260.633 102.379 259.125 103.949C257.617 105.512 255.602 106.293 253.078 106.293C250.523 106.293 248.492 105.516 246.984 103.961C245.477 102.398 244.723 100.25 244.723 97.5156ZM248.297 97.3984C248.297 99.3438 248.746 100.82 249.645 101.828C250.543 102.828 251.684 103.328 253.066 103.328C254.449 103.328 255.582 102.832 256.465 101.84C257.355 100.84 257.801 99.3438 257.801 97.3516C257.801 95.3828 257.367 93.9141 256.5 92.9453C255.641 91.9766 254.496 91.4922 253.066 91.4922C251.637 91.4922 250.484 91.9844 249.609 92.9688C248.734 93.9453 248.297 95.4219 248.297 97.3984ZM264.176 88.8203H277.02V91.7031H267.645V95.6875H272.285C273.566 95.6875 274.629 95.8438 275.473 96.1562C276.316 96.4688 277.035 97.0469 277.629 97.8906C278.23 98.7344 278.531 99.7227 278.531 100.855C278.531 102.02 278.23 103.016 277.629 103.844C277.027 104.672 276.34 105.238 275.566 105.543C274.801 105.848 273.707 106 272.285 106H264.176V88.8203ZM267.645 103.117H271.02C272.098 103.117 272.855 103.066 273.293 102.965C273.73 102.855 274.109 102.613 274.43 102.238C274.758 101.863 274.922 101.402 274.922 100.855C274.922 100.059 274.637 99.4805 274.066 99.1211C273.504 98.7539 272.539 98.5703 271.172 98.5703H267.645V103.117ZM279 88.8203H282.879L286.887 97.7383L290.309 88.8203H293.93L288.129 101.875C287.496 103.289 286.852 104.367 286.195 105.109C285.539 105.844 284.691 106.211 283.652 106.211C282.629 106.211 281.828 106.145 281.25 106.012V103.434C281.742 103.465 282.188 103.48 282.586 103.48C283.391 103.48 283.965 103.336 284.309 103.047C284.66 102.75 284.996 102.117 285.316 101.148L279 88.8203ZM295.395 88.8203H298.863V92.9219C298.863 94.25 298.91 95.1328 299.004 95.5703C299.105 96 299.398 96.375 299.883 96.6953C300.367 97.0156 301.078 97.1758 302.016 97.1758C302.758 97.1758 303.418 97.0977 303.996 96.9414C304.574 96.7773 305.074 96.5391 305.496 96.2266V88.8203H308.965V106H305.496V99.0859C304.793 99.3984 304.102 99.6367 303.422 99.8008C302.742 99.957 302.074 100.035 301.418 100.035C299.707 100.035 298.273 99.6328 297.117 98.8281C295.969 98.0156 295.395 96.6133 295.395 94.6211V88.8203ZM312.551 106V88.8203H325.289V91.7266H316.02V95.5352H324.645V98.4297H316.02V103.105H325.617V106H312.551ZM328.57 106V88.8203H332.039V95.582H338.836V88.8203H342.305V106H338.836V98.4883H332.039V106H328.57ZM345.949 88.8203H349.195V100.258L356.156 88.8203H359.613V106H356.367V94.7852L349.418 106H345.949V88.8203ZM373.43 106V98.8281H372.727C371.633 98.8281 370.859 98.9922 370.406 99.3203C369.961 99.6484 369.195 100.629 368.109 102.262L365.602 106H361.453L363.551 102.648C364.379 101.32 365.039 100.391 365.531 99.8594C366.023 99.3203 366.641 98.8398 367.383 98.418C365.781 98.168 364.625 97.6133 363.914 96.7539C363.203 95.8867 362.848 94.8516 362.848 93.6484C362.848 92.6016 363.109 91.6758 363.633 90.8711C364.164 90.0586 364.859 89.5156 365.719 89.2422C366.586 88.9609 367.879 88.8203 369.598 88.8203H376.898V106H373.43ZM373.43 91.7266H370.723C369.348 91.7266 368.441 91.7578 368.004 91.8203C367.574 91.8828 367.203 92.0938 366.891 92.4531C366.578 92.8125 366.422 93.2812 366.422 93.8594C366.422 94.4609 366.57 94.9414 366.867 95.3008C367.172 95.6523 367.555 95.8711 368.016 95.957C368.484 96.043 369.434 96.0859 370.863 96.0859H373.43V91.7266Z" fill="black"/>
</g>
<defs>
<filter id="filter0_d" x="0" y="0" width="959" height="160" filterUnits="userSpaceOnUse" color-interpolation-filters="sRGB">
<feFlood flood-opacity="0" result="BackgroundImageFix"/>
<feColorMatrix in="SourceAlpha" type="matrix" values="0 0 0 0 0 0 0 0 0 0 0 0 0 0 0 0 0 0 127 0"/>
<feOffset dx="10" dy="2"/>
<feGaussianBlur stdDeviation="2"/>
<feColorMatrix type="matrix" values="0 0 0 0 0 0 0 0 0 0 0 0 0 0 0 0 0 0 0.5 0"/>
<feBlend mode="normal" in2="BackgroundImageFix" result="effect1_dropShadow"/>
<feBlend mode="normal" in="SourceGraphic" in2="effect1_dropShadow" result="shape"/>
</filter>
</defs>
</svg>
