<svg width="938" height="146" viewBox="0 0 938 146" fill="none" xmlns="http://www.w3.org/2000/svg">
<g filter="url(#filter0_d)">
<path fill-rule="evenodd" clip-rule="evenodd" d="M-25 128H522V14H-25V128Z" fill="white"/>
<path fill-rule="evenodd" clip-rule="evenodd" d="M821.918 14.0013H469V127.999H821.918V140L924 71.0017L821.918 2V14.0013Z" fill="white"/>
<path d="M373.797 55.8203H380.664C382.023 55.8203 383.035 55.8789 383.699 55.9961C384.371 56.1055 384.969 56.3398 385.492 56.6992C386.023 57.0586 386.465 57.5391 386.816 58.1406C387.168 58.7344 387.344 59.4023 387.344 60.1445C387.344 60.9492 387.125 61.6875 386.688 62.3594C386.258 63.0312 385.672 63.5352 384.93 63.8711C385.977 64.1758 386.781 64.6953 387.344 65.4297C387.906 66.1641 388.188 67.0273 388.188 68.0195C388.188 68.8008 388.004 69.5625 387.637 70.3047C387.277 71.0391 386.781 71.6289 386.148 72.0742C385.523 72.5117 384.75 72.7812 383.828 72.8828C383.25 72.9453 381.855 72.9844 379.645 73H373.797V55.8203ZM377.266 58.6797V62.6523H379.539C380.891 62.6523 381.73 62.6328 382.059 62.5938C382.652 62.5234 383.117 62.3203 383.453 61.9844C383.797 61.6406 383.969 61.1914 383.969 60.6367C383.969 60.1055 383.82 59.6758 383.523 59.3477C383.234 59.0117 382.801 58.8086 382.223 58.7383C381.879 58.6992 380.891 58.6797 379.258 58.6797H377.266ZM377.266 65.5117V70.1055H380.477C381.727 70.1055 382.52 70.0703 382.855 70C383.371 69.9062 383.789 69.6797 384.109 69.3203C384.438 68.9531 384.602 68.4648 384.602 67.8555C384.602 67.3398 384.477 66.9023 384.227 66.543C383.977 66.1836 383.613 65.9219 383.137 65.7578C382.668 65.5938 381.645 65.5117 380.066 65.5117H377.266ZM391.223 55.8203H394.691V62.6875H399.332C400.551 62.6875 401.598 62.8555 402.473 63.1914C403.355 63.5195 404.09 64.1133 404.676 64.9727C405.262 65.8242 405.555 66.8047 405.555 67.9141C405.555 69.0781 405.25 70.082 404.641 70.9258C404.031 71.7617 403.352 72.3164 402.602 72.5898C401.859 72.8633 400.77 73 399.332 73H391.223V55.8203ZM394.691 70.1172H398.078C399.156 70.1172 399.906 70.0664 400.328 69.9648C400.758 69.8555 401.137 69.6133 401.465 69.2383C401.801 68.8633 401.969 68.4062 401.969 67.8672C401.969 67.1016 401.695 66.5273 401.148 66.1445C400.609 65.7617 399.633 65.5703 398.219 65.5703H394.691V70.1172ZM407.559 55.8203H411.027V73H407.559V55.8203ZM414.812 55.8203H426.449V58.7031H418.281V73H414.812V55.8203ZM428.254 73V55.8203H433.82C435.93 55.8203 437.305 55.9062 437.945 56.0781C438.93 56.3359 439.754 56.8984 440.418 57.7656C441.082 58.625 441.414 59.7383 441.414 61.1055C441.414 62.1602 441.223 63.0469 440.84 63.7656C440.457 64.4844 439.969 65.0508 439.375 65.4648C438.789 65.8711 438.191 66.1406 437.582 66.2734C436.754 66.4375 435.555 66.5195 433.984 66.5195H431.723V73H428.254ZM431.723 58.7266V63.6016H433.621C434.988 63.6016 435.902 63.5117 436.363 63.332C436.824 63.1523 437.184 62.8711 437.441 62.4883C437.707 62.1055 437.84 61.6602 437.84 61.1523C437.84 60.5273 437.656 60.0117 437.289 59.6055C436.922 59.1992 436.457 58.9453 435.895 58.8438C435.48 58.7656 434.648 58.7266 433.398 58.7266H431.723ZM442.188 55.8203H446.066L450.074 64.7383L453.496 55.8203H457.117L451.316 68.875C450.684 70.2891 450.039 71.3672 449.383 72.1094C448.727 72.8438 447.879 73.2109 446.84 73.2109C445.816 73.2109 445.016 73.1445 444.438 73.0117V70.4336C444.93 70.4648 445.375 70.4805 445.773 70.4805C446.578 70.4805 447.152 70.3359 447.496 70.0469C447.848 69.75 448.184 69.1172 448.504 68.1484L442.188 55.8203ZM469.656 55.8203V63.1328C470.234 63.0859 470.672 62.8711 470.969 62.4883C471.266 62.1055 471.676 61.2305 472.199 59.8633C472.887 58.0742 473.59 56.9336 474.309 56.4414C475.02 55.957 476.203 55.7148 477.859 55.7148C477.938 55.7148 478.105 55.7109 478.363 55.7031V58.2695L477.859 58.2578C477.156 58.2578 476.641 58.3477 476.312 58.5273C475.984 58.6992 475.719 58.9648 475.516 59.3242C475.312 59.6836 475.012 60.4219 474.613 61.5391C474.402 62.1328 474.172 62.6289 473.922 63.0273C473.68 63.4258 473.246 63.8008 472.621 64.1523C473.395 64.3789 474.031 64.8242 474.531 65.4883C475.039 66.1445 475.594 67.0781 476.195 68.2891L478.539 73H474.461L472.398 68.5586C472.375 68.4961 472.309 68.375 472.199 68.1953C472.137 68.0781 471.996 67.8086 471.777 67.3867C471.34 66.5664 470.98 66.043 470.699 65.8164C470.418 65.5898 470.07 65.4766 469.656 65.4766V73H466.27V65.4766C465.871 65.4766 465.527 65.5859 465.238 65.8047C464.949 66.0234 464.59 66.5508 464.16 67.3867C463.918 67.8555 463.773 68.125 463.727 68.1953C463.656 68.3125 463.59 68.4336 463.527 68.5586L461.465 73H457.387L459.73 68.2891C460.309 67.125 460.852 66.2031 461.359 65.5234C461.875 64.8359 462.527 64.3789 463.316 64.1523C462.691 63.8008 462.254 63.4297 462.004 63.0391C461.762 62.6406 461.531 62.1406 461.312 61.5391C460.922 60.4453 460.625 59.7148 460.422 59.3477C460.227 58.9805 459.961 58.707 459.625 58.5273C459.297 58.3477 458.758 58.2578 458.008 58.2578C457.914 58.2578 457.766 58.2617 457.562 58.2695V55.7031C457.82 55.7109 457.988 55.7148 458.066 55.7148C459.746 55.7148 460.941 55.9609 461.652 56.4531C462.355 56.9531 463.047 58.0898 463.727 59.8633C464.258 61.2383 464.668 62.1172 464.957 62.5C465.254 62.875 465.691 63.0859 466.27 63.1328V55.8203H469.656ZM496.059 73H492.285L490.785 69.0977H483.918L482.5 73H478.82L485.512 55.8203H489.18L496.059 73ZM489.672 66.2031L487.305 59.8281L484.984 66.2031H489.672ZM497.957 55.8203H501.203V67.2578L508.164 55.8203H511.621V73H508.375V61.7852L501.426 73H497.957V55.8203ZM506.863 51.543H508.469C508.375 52.6055 508 53.4414 507.344 54.0508C506.695 54.6523 505.852 54.9531 504.812 54.9531C503.773 54.9531 502.926 54.6523 502.27 54.0508C501.621 53.4414 501.25 52.6055 501.156 51.543H502.762C502.816 52.0977 503.012 52.5195 503.348 52.8086C503.684 53.0898 504.172 53.2305 504.812 53.2305C505.453 53.2305 505.941 53.0898 506.277 52.8086C506.613 52.5195 506.809 52.0977 506.863 51.543ZM519.027 73V58.7266H513.93V55.8203H527.582V58.7266H522.496V73H519.027ZM529.832 73V55.8203H542.57V58.7266H533.301V62.5352H541.926V65.4297H533.301V70.1055H542.898V73H529.832ZM563.512 66.6836L566.875 67.75C566.359 69.625 565.5 71.0195 564.297 71.9336C563.102 72.8398 561.582 73.293 559.738 73.293C557.457 73.293 555.582 72.5156 554.113 70.9609C552.645 69.3984 551.91 67.2656 551.91 64.5625C551.91 61.7031 552.648 59.4844 554.125 57.9062C555.602 56.3203 557.543 55.5273 559.949 55.5273C562.051 55.5273 563.758 56.1484 565.07 57.3906C565.852 58.125 566.438 59.1797 566.828 60.5547L563.395 61.375C563.191 60.4844 562.766 59.7812 562.117 59.2656C561.477 58.75 560.695 58.4922 559.773 58.4922C558.5 58.4922 557.465 58.9492 556.668 59.8633C555.879 60.7773 555.484 62.2578 555.484 64.3047C555.484 66.4766 555.875 68.0234 556.656 68.9453C557.438 69.8672 558.453 70.3281 559.703 70.3281C560.625 70.3281 561.418 70.0352 562.082 69.4492C562.746 68.8633 563.223 67.9414 563.512 66.6836ZM573.121 73V58.7266H568.023V55.8203H581.676V58.7266H576.59V73H573.121ZM597.895 73H594.121L592.621 69.0977H585.754L584.336 73H580.656L587.348 55.8203H591.016L597.895 73ZM591.508 66.2031L589.141 59.8281L586.82 66.2031H591.508ZM602.418 73V58.7266H597.32V55.8203H610.973V58.7266H605.887V73H602.418ZM613.27 55.8203H616.516V67.2578L623.477 55.8203H626.934V73H623.688V61.7852L616.738 73H613.27V55.8203ZM641.465 66.6836L644.828 67.75C644.312 69.625 643.453 71.0195 642.25 71.9336C641.055 72.8398 639.535 73.293 637.691 73.293C635.41 73.293 633.535 72.5156 632.066 70.9609C630.598 69.3984 629.863 67.2656 629.863 64.5625C629.863 61.7031 630.602 59.4844 632.078 57.9062C633.555 56.3203 635.496 55.5273 637.902 55.5273C640.004 55.5273 641.711 56.1484 643.023 57.3906C643.805 58.125 644.391 59.1797 644.781 60.5547L641.348 61.375C641.145 60.4844 640.719 59.7812 640.07 59.2656C639.43 58.75 638.648 58.4922 637.727 58.4922C636.453 58.4922 635.418 58.9492 634.621 59.8633C633.832 60.7773 633.438 62.2578 633.438 64.3047C633.438 66.4766 633.828 68.0234 634.609 68.9453C635.391 69.8672 636.406 70.3281 637.656 70.3281C638.578 70.3281 639.371 70.0352 640.035 69.4492C640.699 68.8633 641.176 67.9414 641.465 66.6836ZM651.074 73V58.7266H645.977V55.8203H659.629V58.7266H654.543V73H651.074ZM661.926 55.8203H665.172V67.2578L672.133 55.8203H675.59V73H672.344V61.7852L665.395 73H661.926V55.8203ZM679.188 55.8203H682.656V63.1328C683.43 63.0547 683.953 62.8555 684.227 62.5352C684.5 62.2148 684.922 61.3242 685.492 59.8633C686.211 58.0039 686.934 56.8477 687.66 56.3945C688.379 55.9414 689.539 55.7148 691.141 55.7148C691.219 55.7148 691.387 55.7109 691.645 55.7031V58.2695L691.152 58.2578C690.441 58.2578 689.922 58.3477 689.594 58.5273C689.266 58.6992 689 58.9648 688.797 59.3242C688.594 59.6836 688.293 60.4219 687.895 61.5391C687.684 62.1328 687.453 62.6289 687.203 63.0273C686.961 63.4258 686.527 63.8008 685.902 64.1523C686.676 64.3711 687.312 64.8125 687.812 65.4766C688.32 66.1406 688.875 67.0781 689.477 68.2891L691.82 73H687.742L685.691 68.5586C685.66 68.4961 685.594 68.375 685.492 68.1953C685.453 68.1328 685.309 67.8633 685.059 67.3867C684.613 66.543 684.246 66.0156 683.957 65.8047C683.676 65.5938 683.242 65.4844 682.656 65.4766V73H679.188V55.8203ZM692.641 55.8203H696.52L700.527 64.7383L703.949 55.8203H707.57L701.77 68.875C701.137 70.2891 700.492 71.3672 699.836 72.1094C699.18 72.8438 698.332 73.2109 697.293 73.2109C696.27 73.2109 695.469 73.1445 694.891 73.0117V70.4336C695.383 70.4648 695.828 70.4805 696.227 70.4805C697.031 70.4805 697.605 70.3359 697.949 70.0469C698.301 69.75 698.637 69.1172 698.957 68.1484L692.641 55.8203ZM716.008 55.8203H722.875C724.234 55.8203 725.246 55.8789 725.91 55.9961C726.582 56.1055 727.18 56.3398 727.703 56.6992C728.234 57.0586 728.676 57.5391 729.027 58.1406C729.379 58.7344 729.555 59.4023 729.555 60.1445C729.555 60.9492 729.336 61.6875 728.898 62.3594C728.469 63.0312 727.883 63.5352 727.141 63.8711C728.188 64.1758 728.992 64.6953 729.555 65.4297C730.117 66.1641 730.398 67.0273 730.398 68.0195C730.398 68.8008 730.215 69.5625 729.848 70.3047C729.488 71.0391 728.992 71.6289 728.359 72.0742C727.734 72.5117 726.961 72.7812 726.039 72.8828C725.461 72.9453 724.066 72.9844 721.855 73H716.008V55.8203ZM719.477 58.6797V62.6523H721.75C723.102 62.6523 723.941 62.6328 724.27 62.5938C724.863 62.5234 725.328 62.3203 725.664 61.9844C726.008 61.6406 726.18 61.1914 726.18 60.6367C726.18 60.1055 726.031 59.6758 725.734 59.3477C725.445 59.0117 725.012 58.8086 724.434 58.7383C724.09 58.6992 723.102 58.6797 721.469 58.6797H719.477ZM719.477 65.5117V70.1055H722.688C723.938 70.1055 724.73 70.0703 725.066 70C725.582 69.9062 726 69.6797 726.32 69.3203C726.648 68.9531 726.812 68.4648 726.812 67.8555C726.812 67.3398 726.688 66.9023 726.438 66.543C726.188 66.1836 725.824 65.9219 725.348 65.7578C724.879 65.5938 723.855 65.5117 722.277 65.5117H719.477ZM738.273 73L744.145 64.0352L738.824 55.8203H742.879L746.324 61.3398L749.699 55.8203H753.719L748.375 64.1641L754.246 73H750.062L746.254 67.0586L742.434 73H738.273ZM756.121 73V55.9609H759.59V70.1055H768.215V73H756.121ZM769.82 67.4102L773.195 67.082C773.398 68.2148 773.809 69.0469 774.426 69.5781C775.051 70.1094 775.891 70.375 776.945 70.375C778.062 70.375 778.902 70.1406 779.465 69.6719C780.035 69.1953 780.32 68.6406 780.32 68.0078C780.32 67.6016 780.199 67.2578 779.957 66.9766C779.723 66.6875 779.309 66.4375 778.715 66.2266C778.309 66.0859 777.383 65.8359 775.938 65.4766C774.078 65.0156 772.773 64.4492 772.023 63.7773C770.969 62.832 770.441 61.6797 770.441 60.3203C770.441 59.4453 770.688 58.6289 771.18 57.8711C771.68 57.1055 772.395 56.5234 773.324 56.125C774.262 55.7266 775.391 55.5273 776.711 55.5273C778.867 55.5273 780.488 56 781.574 56.9453C782.668 57.8906 783.242 59.1523 783.297 60.7305L779.828 60.8828C779.68 60 779.359 59.3672 778.867 58.9844C778.383 58.5938 777.652 58.3984 776.676 58.3984C775.668 58.3984 774.879 58.6055 774.309 59.0195C773.941 59.2852 773.758 59.6406 773.758 60.0859C773.758 60.4922 773.93 60.8398 774.273 61.1289C774.711 61.4961 775.773 61.8789 777.461 62.2773C779.148 62.6758 780.395 63.0898 781.199 63.5195C782.012 63.9414 782.645 64.5234 783.098 65.2656C783.559 66 783.789 66.9102 783.789 67.9961C783.789 68.9805 783.516 69.9023 782.969 70.7617C782.422 71.6211 781.648 72.2617 780.648 72.6836C779.648 73.0977 778.402 73.3047 776.91 73.3047C774.738 73.3047 773.07 72.8047 771.906 71.8047C770.742 70.7969 770.047 69.332 769.82 67.4102Z" fill="#7ED321"/>
</g>
<defs>
<filter id="filter0_d" x="-25" y="0" width="963" height="146" filterUnits="userSpaceOnUse" color-interpolation-filters="sRGB">
<feFlood flood-opacity="0" result="BackgroundImageFix"/>
<feColorMatrix in="SourceAlpha" type="matrix" values="0 0 0 0 0 0 0 0 0 0 0 0 0 0 0 0 0 0 127 0"/>
<feOffset dx="10" dy="2"/>
<feGaussianBlur stdDeviation="2"/>
<feColorMatrix type="matrix" values="0 0 0 0 0 0 0 0 0 0 0 0 0 0 0 0 0 0 0.5 0"/>
<feBlend mode="normal" in2="BackgroundImageFix" result="effect1_dropShadow"/>
<feBlend mode="normal" in="SourceGraphic" in2="effect1_dropShadow" result="shape"/>
</filter>
</defs>
</svg>
