<svg width="45" height="53" viewBox="0 0 45 53" fill="none" xmlns="http://www.w3.org/2000/svg">
<path fill-rule="evenodd" clip-rule="evenodd" d="M6.88254 51.7364C6.25654 51.7453 5.62721 51.7205 5.00521 51.7701C3.26121 51.9092 1.82054 51.3756 0.691211 50.095C0.693211 50.0449 0.673878 50.0048 0.632545 49.9737C0.593211 49.9191 0.554545 49.8645 0.515878 49.8098C0.436545 49.6428 0.356545 49.4757 0.276545 49.3087L0.177878 49.1245C0.0105446 48.4562 -0.00012207 47.7778 -0.00012207 47.0944C0.00387793 33.5488 0.0025446 20.0026 0.00521126 6.45633C0.00521126 5.93801 0.0318779 5.41969 0.0458779 4.90137C0.447211 7.04071 1.79188 8.24505 4.04854 8.46356C4.97788 8.55312 5.92188 8.49722 6.85921 8.50738C6.86721 8.86182 6.88188 9.21626 6.88188 9.5707C6.88254 23.6257 6.88254 37.6814 6.88254 51.7364Z" fill="#FFEC00"/>
<mask id="mask0" mask-type="alpha" maskUnits="userSpaceOnUse" x="1" y="1" width="43" height="8">
<path fill-rule="evenodd" clip-rule="evenodd" d="M43.374 1.92041V8.50868H1.38318V1.92041H43.374V1.92041Z" fill="white"/>
</mask>
<g mask="url(#mask0)">
<path fill-rule="evenodd" clip-rule="evenodd" d="M43.3742 2.11732C43.3562 3.80822 43.3382 5.49848 43.3202 7.18874C41.7329 7.18937 40.1449 7.19065 38.5569 7.19128C38.5469 6.97468 38.5302 6.75871 38.5289 6.54274C38.5209 5.16754 38.5222 5.19168 37.0615 5.212C36.5549 5.21836 36.4449 5.38859 36.4555 5.82751C36.4755 6.71996 36.4429 7.61369 36.4315 8.50741C36.2242 8.50741 36.0162 8.50741 35.8089 8.50804C35.7975 7.58447 35.7709 6.66089 35.7835 5.73795C35.7889 5.35746 35.6695 5.20946 35.2522 5.21836C34.2262 5.24059 33.1982 5.24059 32.1722 5.21836C31.7542 5.20883 31.6369 5.35873 31.6415 5.73858C31.6542 6.66153 31.6275 7.5851 31.6162 8.50868C31.4089 8.50805 31.2009 8.50804 30.9929 8.50804C30.9822 7.75025 30.9122 6.98738 30.9769 6.23531C31.0449 5.44893 30.8389 5.17453 29.9369 5.18787C29.0782 5.20057 28.7529 5.39812 28.8869 6.21943C28.9389 6.53449 28.8775 6.86669 28.8682 7.19128C27.9809 7.19128 27.0935 7.19001 26.2055 7.19128C20.2222 7.20017 14.2389 7.2097 8.25552 7.21859C7.79819 7.21859 7.34085 7.21859 6.88352 7.21796C6.00085 7.20843 5.11819 7.20843 4.23552 7.18683C2.63419 7.14872 1.40685 6.03395 1.38352 4.60984C1.35952 3.15269 2.59885 1.99092 4.23552 1.95153C5.11819 1.92994 6.00085 1.92994 6.88352 1.92041H8.25552C8.48419 1.9293 8.71285 1.94582 8.94152 1.94582C20.3989 1.94709 31.8562 1.94582 43.3135 1.94518C43.3335 2.00299 43.3542 2.06015 43.3742 2.11732Z" fill="#F4F4F5"/>
</g>
<path fill-rule="evenodd" clip-rule="evenodd" d="M43.3136 1.94555C31.8563 1.94618 20.3989 1.94682 8.94161 1.94618C8.71294 1.94618 8.48427 1.92967 8.25561 1.92014C8.25561 1.50155 8.25494 1.08232 8.25427 0.663085C10.9729 0.654192 13.6909 0.638947 16.4096 0.637677C24.7376 0.634501 33.0656 0.635771 41.3936 0.637677C42.6303 0.637677 43.0396 0.922245 43.3136 1.94555Z" fill="#426A80"/>
<mask id="mask1" mask-type="alpha" maskUnits="userSpaceOnUse" x="0" y="0" width="7" height="9">
<path fill-rule="evenodd" clip-rule="evenodd" d="M4.31213 0.63501H6.90825V2.21566V8.51513H0.036499V0.63501L4.31213 0.63501Z" fill="white"/>
</mask>
<g mask="url(#mask1)">
<path fill-rule="evenodd" clip-rule="evenodd" d="M6.88358 1.92029C6.00092 1.92982 5.11825 1.92982 4.23558 1.95142C2.59892 1.9908 1.35958 3.15258 1.38358 4.60972C1.40692 6.03383 2.63358 7.14861 4.23558 7.18735C5.11825 7.20831 6.00092 7.20831 6.88358 7.21784C6.89158 7.64533 6.89958 8.07218 6.90825 8.4984L6.85958 8.50729C5.92225 8.49713 4.97758 8.55303 4.04825 8.46283C1.79225 8.24496 0.447584 7.04062 0.0462511 4.90128C-0.110416 2.57899 1.63758 0.712148 4.06225 0.644182C5.00158 0.618139 5.94225 0.654981 6.88292 0.663238C6.88292 1.08247 6.88358 1.50106 6.88358 1.92029Z" fill="#FFEC00"/>
</g>
<path fill-rule="evenodd" clip-rule="evenodd" d="M6.8836 1.92039C6.8836 1.50116 6.88293 1.08256 6.88293 0.66333H8.25427C8.25493 1.08256 8.2556 1.50116 8.2556 1.92039H6.8836Z" fill="#3A5F73"/>
<path fill-rule="evenodd" clip-rule="evenodd" d="M0.177856 49.124L0.276523 49.3082L0.177856 49.124Z" fill="#43A691"/>
<path fill-rule="evenodd" clip-rule="evenodd" d="M0.516113 49.8096C0.55478 49.8642 0.593447 49.9188 0.63278 49.9735C0.594113 49.9188 0.555447 49.8642 0.516113 49.8096Z" fill="#43A691"/>
<path fill-rule="evenodd" clip-rule="evenodd" d="M43.3429 10.5567C43.3442 23.6024 43.3442 36.6481 43.3436 49.6938C43.3436 51.365 42.9249 51.7633 41.1669 51.7633C30.5116 51.7633 19.8556 51.7633 9.19957 51.762C8.8849 51.762 8.57023 51.7448 8.25623 51.736C8.25357 37.3309 8.25157 22.9259 8.2489 8.52092C10.13 8.51848 12.0112 8.51605 13.8923 8.51363C18.8851 8.5072 23.8779 8.50087 28.8702 8.49487C28.9129 12.2978 28.8916 16.0823 28.9109 19.8668C28.9136 20.4531 28.5682 21.2617 29.3076 21.5685C29.9929 21.8531 30.4536 21.134 30.9822 20.798C31.2702 20.7142 31.4976 20.5497 31.6749 20.3184C31.8916 20.1882 32.1109 20.0618 32.3242 19.9265C33.3336 19.285 34.0916 19.285 35.1002 19.9265C35.3142 20.0618 35.5336 20.1882 35.7502 20.3191C35.9282 20.549 36.1542 20.7142 36.4436 20.798C36.6916 20.9797 36.9329 21.1696 37.1889 21.3417C37.4942 21.5482 37.8269 21.7788 38.2082 21.566C38.5469 21.3773 38.5269 21.0121 38.5269 20.6843C38.5202 16.6267 38.5122 12.5697 38.5042 8.51266C40.1429 8.49995 41.7309 8.50567 43.3189 8.51075C43.3276 9.19232 43.3429 9.87452 43.3429 10.5567Z" fill="#9013FE"/>
<path fill-rule="evenodd" clip-rule="evenodd" d="M8.24907 8.52117C8.25107 22.9262 8.25374 37.3312 8.25574 51.7362H6.88241C6.88241 37.6812 6.88307 23.6255 6.88174 9.57052C6.88174 9.21608 6.86707 8.86163 6.85974 8.50783L6.90774 8.49894L8.26907 8.48242L8.24907 8.52117Z" fill="#1C2933"/>
<path fill-rule="evenodd" clip-rule="evenodd" d="M43.3188 8.51081C41.7308 8.50573 40.1428 8.50001 38.5548 8.49493C38.5555 8.06046 38.5561 7.62535 38.5568 7.19087C40.1448 7.19024 41.7328 7.1896 43.3201 7.18896C43.3195 7.62979 43.3188 8.06998 43.3188 8.51081Z" fill="#426A80"/>
<path fill-rule="evenodd" clip-rule="evenodd" d="M28.8702 8.49466C21.9962 8.50356 15.1229 8.51181 8.2489 8.52134L8.26957 8.48196C8.2649 8.06082 8.26023 7.63969 8.25557 7.21855C14.2389 7.20966 20.2222 7.20013 26.2056 7.19124C27.0929 7.18997 27.9809 7.19124 28.8682 7.19124L28.8702 8.49466Z" fill="#426A80"/>
<path fill-rule="evenodd" clip-rule="evenodd" d="M31.6163 8.50823C31.6277 7.58465 31.6543 6.66107 31.6417 5.73813C31.6363 5.35892 31.7543 5.20901 32.1717 5.2179C33.1983 5.24014 34.2263 5.24014 35.2523 5.2179C35.6697 5.20901 35.7883 5.35765 35.783 5.7375C35.771 6.66044 35.7977 7.58402 35.809 8.50759L35.7443 8.49616H31.6803L31.6163 8.50823Z" fill="#417505"/>
<path fill-rule="evenodd" clip-rule="evenodd" d="M31.6747 20.3189C31.4973 20.5495 31.2707 20.7146 30.982 20.7978C30.9747 20.3367 30.9627 19.8755 30.9613 19.4137C30.9493 15.7747 30.9393 12.1356 30.9293 8.49658L30.9933 8.50802C31.2007 8.50802 31.4087 8.50802 31.6167 8.50865L31.68 8.49658C31.678 12.4373 31.6767 16.3781 31.6747 20.3189Z" fill="#E5E4E4"/>
<path fill-rule="evenodd" clip-rule="evenodd" d="M36.4432 20.798C36.1545 20.7141 35.9278 20.549 35.7505 20.319L35.7445 8.49609L35.8085 8.50753C36.0165 8.50753 36.2238 8.50753 36.4318 8.50753L36.4958 8.49609C36.4852 8.82195 36.4665 9.14654 36.4658 9.47176C36.4565 13.2474 36.4505 17.023 36.4432 20.798Z" fill="#E5E4E4"/>
<path fill-rule="evenodd" clip-rule="evenodd" d="M28.8702 8.4948L28.8682 7.19137C28.8775 6.86679 28.9389 6.53458 28.8869 6.21889C28.7529 5.39821 29.0782 5.20066 29.9369 5.18796C30.8389 5.17462 31.0449 5.44903 30.9769 6.2354C30.9122 6.98748 30.9822 7.75035 30.9929 8.50814L30.9289 8.49607C30.2595 8.50179 29.5902 8.5075 28.9209 8.51322L28.8702 8.4948Z" fill="#417505"/>
<path fill-rule="evenodd" clip-rule="evenodd" d="M38.5569 7.19119C38.5562 7.62566 38.5555 8.06078 38.5549 8.49525L38.5042 8.51304C37.8349 8.50732 37.1655 8.5016 36.4962 8.49652L36.4315 8.50732C36.4429 7.61423 36.4755 6.71987 36.4555 5.82742C36.4455 5.3885 36.5549 5.2189 37.0615 5.21191C38.5222 5.19222 38.5209 5.16745 38.5289 6.54265C38.5302 6.75862 38.5469 6.97522 38.5569 7.19119Z" fill="#417505"/>
<path fill-rule="evenodd" clip-rule="evenodd" d="M8.25567 7.21851C8.26033 7.64028 8.265 8.06141 8.26967 8.48255L6.90833 8.49906C6.89967 8.07221 6.89167 7.64536 6.88367 7.21851C7.341 7.21851 7.79833 7.21851 8.25567 7.21851Z" fill="#3A5F73"/>
<path fill-rule="evenodd" clip-rule="evenodd" d="M35.7446 8.49634L35.7506 20.3186C35.5339 20.1884 35.3139 20.062 35.1006 19.9267C34.0912 19.2852 33.3339 19.2852 32.3246 19.9267C32.1112 20.062 31.8912 20.1884 31.6746 20.3186C31.6766 16.3779 31.6779 12.4371 31.6799 8.49634H35.7446Z" fill="#7ED321"/>
<path fill-rule="evenodd" clip-rule="evenodd" d="M28.9211 8.5131C29.5904 8.50738 30.2598 8.50166 30.9291 8.49658C30.9398 12.1356 30.9491 15.7747 30.9618 19.4137C30.9631 19.8755 30.9751 20.3367 30.9818 20.7978C30.4538 21.1345 29.9931 21.8529 29.3078 21.5689C28.5684 21.2615 28.9138 20.4535 28.9104 19.8673C28.8918 16.0827 28.9131 12.2976 28.9211 8.5131Z" fill="#7ED321"/>
<path fill-rule="evenodd" clip-rule="evenodd" d="M36.4959 8.49634C37.1652 8.50142 37.8346 8.50714 38.5039 8.51285C38.5119 12.5699 38.5206 16.6269 38.5266 20.6839C38.5266 21.0123 38.5466 21.3775 38.2079 21.5662C37.8272 21.779 37.4946 21.5484 37.1886 21.3419C36.9332 21.1698 36.6912 20.9799 36.4432 20.7982C36.4506 17.0226 36.4566 13.247 36.4659 9.472C36.4666 9.14678 36.4852 8.82156 36.4959 8.49634Z" fill="#7ED321"/>
</svg>
