<svg width="138" height="113" viewBox="0 0 138 113" fill="none" xmlns="http://www.w3.org/2000/svg">
<mask id="mask0" mask-type="alpha" maskUnits="userSpaceOnUse" x="49" y="93" width="39" height="19">
<path fill-rule="evenodd" clip-rule="evenodd" d="M87.9197 111.86H49.26L49.26 93.042H87.9197V111.86Z" fill="white"/>
</mask>
<g mask="url(#mask0)">
<path fill-rule="evenodd" clip-rule="evenodd" d="M84.8591 105.701H81.5865L78.309 93.042H72.996H64.1837H58.8707L55.5932 105.701H52.3207C50.64 105.701 49.26 107.089 49.26 108.779C49.26 110.474 50.64 111.862 52.3207 111.862H84.8591C86.5397 111.862 87.9197 110.474 87.9197 108.779C87.9197 107.089 86.5397 105.701 84.8591 105.701Z" fill="#CFDBEA"/>
</g>
<path fill-rule="evenodd" clip-rule="evenodd" d="M127.32 94.041H9.85714C4.43571 94.041 0 89.5801 0 84.1279V10.8408C0 5.3886 4.43571 0.927734 9.85714 0.927734H127.32C132.746 0.927734 137.177 5.3886 137.177 10.8408V84.1279C137.177 89.5801 132.746 94.041 127.32 94.041Z" fill="#CFDBEA"/>
<path fill-rule="evenodd" clip-rule="evenodd" d="M119.231 78H16.7694C11.4011 78 7 73.5144 7 68.032V17.968C7 12.4856 11.4011 8 16.7694 8H119.231C124.604 8 129 12.4856 129 17.968V68.032C129 73.5144 124.604 78 119.231 78Z" fill="#FFEC00"/>
<path fill-rule="evenodd" clip-rule="evenodd" d="M82.0938 88H54.9013C53.3063 88 52 86.6453 52 84.9975C52 83.3496 53.3063 82 54.9013 82H82.0938C83.6888 82 85 83.3496 85 84.9975C85 86.6453 83.6888 88 82.0938 88Z" fill="#E9E7E7"/>
</svg>
