<svg width="123" height="130" viewBox="0 0 123 130" fill="none" xmlns="http://www.w3.org/2000/svg">
<path fill-rule="evenodd" clip-rule="evenodd" d="M123 130V112.499C123 105.075 116.815 99 109.255 99H72.7411C65.1826 99 59 105.075 59 112.499V130H123Z" fill="white"/>
<mask id="mask0" mask-type="alpha" maskUnits="userSpaceOnUse" x="0" y="0" width="123" height="130">
<path fill-rule="evenodd" clip-rule="evenodd" d="M0 130H123V0H0V130Z" fill="white"/>
</mask>
<g mask="url(#mask0)">
<path fill-rule="evenodd" clip-rule="evenodd" d="M59 130H70V117H59V130Z" fill="#FFE0BD"/>
<path fill-rule="evenodd" clip-rule="evenodd" d="M68 130H70V117H68V130Z" fill="#A8ABAE"/>
<path fill-rule="evenodd" clip-rule="evenodd" d="M112 130H123V117H112V130Z" fill="#FFE0BD"/>
<path fill-rule="evenodd" clip-rule="evenodd" d="M112 130H114V117H112V130Z" fill="#A8ABAE"/>
<path fill-rule="evenodd" clip-rule="evenodd" d="M99 104.425L92.5 111L86 103.486V86H99V104.425Z" fill="#FFE0BD"/>
<path fill-rule="evenodd" clip-rule="evenodd" d="M72.6347 99.0026C65.1358 99.0026 59 105.077 59 112.501V130H71.9399L98 95.2362V91H92.9824H84.5931L84.4925 99.0026H72.6347Z" fill="#D2D4D5"/>
<path fill-rule="evenodd" clip-rule="evenodd" d="M91 94C81.0994 94 73 85.7379 73 75.6382V59.5747C73 49.4751 109 49.4751 109 59.5747V75.6382C109 85.7379 100.901 94 91 94Z" fill="#FFE6CA"/>
<path fill-rule="evenodd" clip-rule="evenodd" d="M91.0884 52.0005L91 64.8621V93.9849C91.1076 93.9868 91.2075 94 91.3152 94C101.592 94 110 85.7372 110 75.6387V59.572C110 54.4803 100.505 51.959 91.0884 52.0005Z" fill="#FFE0BD"/>
<path fill-rule="evenodd" clip-rule="evenodd" d="M72.63 71.9943H73.9652C73.9652 71.9943 72.4389 58.5084 77.1085 56.0357C81.778 53.563 87.3433 53.8944 91.2173 54.5724C91.2173 54.5724 104.471 53.021 106.939 55.7733C110.713 59.9698 109.584 71.9943 109.584 71.9943L110.713 72C110.713 72 111.464 68.945 110.535 54.0687C110.535 54.0687 110.997 46.9551 106.758 44.7295C105.122 43.8676 104.206 41.0865 105.452 40.5866C105.452 40.5866 99.6143 39.5715 98.1103 41.9312C98.1103 41.9312 94.2122 35.9496 95.8646 33C95.8646 33 91.54 36.8805 91.2173 42.6131C91.2173 42.6131 90.3865 36.2178 87.2302 35.714C87.2302 35.714 85.3739 38.3955 83.2653 41.596C83.2653 41.596 79.5638 38.2729 75.2318 42.4905C75.2318 42.4905 77.8466 43.7393 78.147 45.2543C78.147 45.2543 70.6568 48.3456 72.2127 56.7578L72.63 71.9943Z" fill="#004669"/>
<path fill-rule="evenodd" clip-rule="evenodd" d="M110 52.114C110.004 52.184 110.008 52.244 110.012 52.314C110.01 52.212 110.01 52.116 110.006 52C110.002 52.07 110 52.114 110 52.114Z" fill="#3F3E40"/>
<path fill-rule="evenodd" clip-rule="evenodd" d="M106.201 53.7545C103.733 50.8996 90.4834 52.5088 90.4834 52.5088C86.6105 51.8055 81.0469 51.4598 76.3786 54.0267C73.4086 55.6578 72.947 61.91 73.0045 66.247C73.0416 62.0153 73.6496 56.6214 76.3786 55.1234C81.0469 52.5565 86.6105 52.9022 90.4834 53.6055C90.4834 53.6055 103.733 51.9963 106.201 54.8512C108.465 57.4637 108.96 62.9888 108.997 67C109.039 62.9689 108.682 56.6134 106.201 53.7545Z" fill="#3F3E40"/>
<path fill-rule="evenodd" clip-rule="evenodd" d="M91 55.385C91.1313 55.407 91.2732 55.427 91.4027 55.451C91.4027 55.451 94.5497 55.051 98 55.001C95.0836 54.981 92.1956 55.253 91 55.385Z" fill="#6E869B"/>
<path fill-rule="evenodd" clip-rule="evenodd" d="M22 51.5C22 53.9851 19.987 56 17.5 56C15.0149 56 13 53.9851 13 51.5C13 49.0149 15.0149 47 17.5 47C19.987 47 22 49.0149 22 51.5Z" fill="#FFE0BD"/>
<path fill-rule="evenodd" clip-rule="evenodd" d="M84 130V107.42C84 97.8385 75.8847 90 65.9612 90H18.0369C8.11718 90 0 97.8385 0 107.42V130H84Z" fill="#7ED321"/>
<path fill-rule="evenodd" clip-rule="evenodd" d="M49 97.0028C44.5321 102.27 36.6898 102.342 32.1353 97.1557L32 97.0028V75H49V97.0028Z" fill="#FFE0BD"/>
<path fill-rule="evenodd" clip-rule="evenodd" d="M57 90L57.084 115.804L68 123L67.5698 90.0791C67.0296 90.0339 66.4854 90 65.9332 90H57Z" fill="#1F191A"/>
<path fill-rule="evenodd" clip-rule="evenodd" d="M17.7875 89.4642C8.00408 89.4642 0 97.4084 0 107.116V130H16.8818L50 84.5408V79H44.3281H32.2918L32.1616 89.4642H17.7875Z" fill="#417505"/>
<path fill-rule="evenodd" clip-rule="evenodd" d="M40 85C26.7992 85 16 74.0444 16 60.6523V39.3477C16 25.9575 26.7992 15 40 15C53.2008 15 64 25.9575 64 39.3477V60.6523C64 74.0444 53.2008 85 40 85Z" fill="#FFE6CA"/>
<path fill-rule="evenodd" clip-rule="evenodd" d="M40.1439 15C40.0972 15 40.0486 15.0076 40 15.0076V84.9905C40.0486 84.9924 40.0972 85 40.1439 85C53.2656 85 64 74.0425 64 60.6523V39.3477C64 25.9575 53.2656 15 40.1439 15Z" fill="#FFE0BD"/>
<path fill-rule="evenodd" clip-rule="evenodd" d="M40 15C26.7992 15 16 25.9838 16 39.4062V52.7348C16.3009 52.5378 16.4984 52.3561 16.4984 52.3561C23.8483 49.1143 32.368 33.1904 32.368 33.1904C32.368 33.1904 43.5489 47.0908 55.7229 48.9747L55.8658 79C60.8366 74.5208 64 68.0066 64 60.7618V39.4062C64 25.9838 53.2008 15 40 15Z" fill="#1F191A"/>
<path fill-rule="evenodd" clip-rule="evenodd" d="M58.723 114.8L58.5081 47.0086C46.1927 45.1519 34.8819 31.4523 34.8819 31.4523C34.8819 31.4523 26.2632 47.1462 18.828 50.3411C18.828 50.3411 15.5175 53.3419 15 48.2394V33.211C15 21.5452 24.6346 12 36.4078 12H46.5903C58.3673 12 68 21.5452 68 33.211V122L58.723 114.8Z" fill="#FFD542"/>
<path fill-rule="evenodd" clip-rule="evenodd" d="M60 44.5031C47.5538 42.6419 34.2463 28 34.2463 28C34.2463 28 23.8072 43.8002 16 50.8066C17.0035 50.85 18.0263 49.9355 18.0263 49.9355C25.5394 46.7328 34.2463 31.0006 34.2463 31.0006C34.2463 31.0006 45.6775 44.7336 58.1198 46.5948L58.339 88L60 44.5031Z" fill="#F6C004"/>
<path fill-rule="evenodd" clip-rule="evenodd" d="M45.5413 12H35.3355C25.9019 12 17.8547 18.1071 15 26.512C18.8139 20.5764 25.5072 16.6049 33.1101 16.6049H43.3141C55.116 16.6049 64.7727 26.1501 64.7727 37.8158L65.8787 120.275L67 122V33.211C67 21.5452 57.3433 12 45.5413 12Z" fill="#FFDD72"/>
<path fill-rule="evenodd" clip-rule="evenodd" d="M44 110C44 111.105 43.1053 112 41.9986 112C40.8947 112 40 111.105 40 110C40 108.895 40.8947 108 41.9986 108C43.1053 108 44 108.895 44 110Z" fill="#486681"/>
<path fill-rule="evenodd" clip-rule="evenodd" d="M43 118.999C43 120.103 42.1047 121 40.9972 121C39.8953 121 39 120.103 39 118.999C39 117.895 39.8953 117 40.9972 117C42.1047 117 43 117.895 43 118.999Z" fill="#486681"/>
<path fill-rule="evenodd" clip-rule="evenodd" d="M43 126.001C43 127.105 42.1047 128 40.9972 128C39.8953 128 39 127.105 39 126.001C39 124.897 39.8953 124 40.9972 124C42.1047 124 43 124.897 43 126.001Z" fill="#486681"/>
<path fill-rule="evenodd" clip-rule="evenodd" d="M60.378 83H60V117.435L60.378 118V83Z" fill="#F8C73E"/>
<path fill-rule="evenodd" clip-rule="evenodd" d="M63 88H63.352V55H63V88Z" fill="#F8C73E"/>
<path fill-rule="evenodd" clip-rule="evenodd" d="M60 80H60.352V67H60V80Z" fill="#F8C73E"/>
<path fill-rule="evenodd" clip-rule="evenodd" d="M64 70H64.352V47H64V70Z" fill="#F8C73E"/>
<path fill-rule="evenodd" clip-rule="evenodd" d="M65 106H65.352V73H65V106Z" fill="#F8C73E"/>
<path fill-rule="evenodd" clip-rule="evenodd" d="M62 115H62.476V91H62V115Z" fill="#F8C73E"/>
<path fill-rule="evenodd" clip-rule="evenodd" d="M71 0V25.9161H74.3524V30.3011V34.5133C74.3524 34.9667 74.9227 35.173 75.2163 34.8255L86.1767 25.9161H119V0H71Z" fill="#9013FE"/>
<path fill-rule="evenodd" clip-rule="evenodd" d="M80 7H113V5H80V7Z" fill="#F1F2F2"/>
<path fill-rule="evenodd" clip-rule="evenodd" d="M80 15H105V13H80V15Z" fill="#F1F2F2"/>
<path fill-rule="evenodd" clip-rule="evenodd" d="M80 21H102V19H80V21Z" fill="#F1F2F2"/>
</g>
</svg>
