<svg width="126" height="99" viewBox="0 0 126 99" fill="none" xmlns="http://www.w3.org/2000/svg">
<path fill-rule="evenodd" clip-rule="evenodd" d="M87 37V62H124L119.19 49.5L124 37H87Z" fill="#FF6326"/>
<path fill-rule="evenodd" clip-rule="evenodd" d="M87 49V61H124L119.192 49H87Z" fill="#C1481A"/>
<path fill-rule="evenodd" clip-rule="evenodd" d="M0 37L4.81082 49.5L0 62H37V37H0Z" fill="#FF6326"/>
<path fill-rule="evenodd" clip-rule="evenodd" d="M4.81082 49L0 61H37V49H4.81082Z" fill="#C1481A"/>
<path fill-rule="evenodd" clip-rule="evenodd" d="M96.7297 60.5535C96.5406 60.8373 96.401 61.1475 96.2497 61.4518H87.7737V36.9673H96.2497C96.401 37.2716 96.5406 37.5817 96.7297 37.8656L101.293 44.6831C103.126 47.4188 103.126 50.9973 101.293 53.7331L96.7297 60.5535Z" fill="#1F191A"/>
<path fill-rule="evenodd" clip-rule="evenodd" d="M29.1074 37.8656L24.5436 44.6831C22.7111 47.4188 22.7111 50.9973 24.5436 53.7331L29.1074 60.5506C29.2964 60.8373 29.4331 61.1475 29.5873 61.4518H38.011V36.9673H29.5873C29.4331 37.2716 29.2964 37.5817 29.1074 37.8656Z" fill="#1F191A"/>
<path fill-rule="evenodd" clip-rule="evenodd" d="M98.8885 53.7343L94.3247 60.5547C93.7226 61.4501 93.3066 62.4624 93.1001 63.5246L91.5352 71.5944C90.904 74.8305 88.3909 77.3644 85.1709 77.9964L77.1486 79.5705C76.0927 79.7783 75.0863 80.1967 74.1933 80.7995L67.416 85.3932C64.6963 87.2366 61.1389 87.2366 58.4193 85.3932L51.6419 80.7995C50.7489 80.1967 49.7425 79.7783 48.6866 79.5705L40.6644 77.9964C37.4444 77.3644 34.9313 74.8305 34.303 71.5944L32.7352 63.5246C32.5315 62.4624 32.1127 61.4501 31.5106 60.5518L26.9468 53.7343C25.1172 50.9985 25.1172 47.4201 26.9468 44.6843L31.5106 37.8668C32.1127 36.9685 32.5315 35.9561 32.7352 34.894L34.303 26.8242C34.9313 23.5851 37.4444 21.0571 40.6644 20.4222L48.6866 18.848C49.7425 18.6403 50.7489 18.2219 51.6419 17.6162L58.4193 13.0253C61.1389 11.1849 64.6963 11.1849 67.416 13.0253L74.1933 17.6162C75.0863 18.2219 76.0927 18.6403 77.1486 18.848L85.1738 20.4251C88.3909 21.0571 90.904 23.5881 91.5352 26.8242L93.1001 34.894C93.3066 35.9561 93.7226 36.9685 94.3247 37.8668L98.8885 44.6843C100.718 47.4201 100.718 50.9985 98.8885 53.7343Z" fill="#FFD542"/>
<path fill-rule="evenodd" clip-rule="evenodd" d="M88.3883 49.2096C88.3883 63.3596 76.986 74.8323 62.9194 74.8323C48.8499 74.8323 37.4476 63.3596 37.4476 49.2096C37.4476 35.0596 48.8499 23.5898 62.9194 23.5898C76.986 23.5898 88.3883 35.0596 88.3883 49.2096Z" fill="#FFE694"/>
<path fill-rule="evenodd" clip-rule="evenodd" d="M73.917 66.7095L63.4514 61.3491C63.2478 61.2438 63.0063 61.2467 62.8027 61.3579L52.4796 66.9904C51.9735 67.2654 51.3714 66.8382 51.4587 66.2647L53.2941 54.596C53.329 54.3677 53.2533 54.1366 53.0875 53.9786L44.5708 45.8415C44.1519 45.4406 44.3701 44.7325 44.9431 44.6418L56.5402 42.7926C56.7671 42.7546 56.962 42.6112 57.0609 42.4006L62.1192 31.7413C62.3693 31.2175 63.1081 31.2058 63.3699 31.7237L68.7045 42.2484C68.8092 42.4532 69.007 42.5966 69.2339 42.6259L80.8776 44.1737C81.4477 44.2498 81.6862 44.952 81.279 45.3646L72.9746 53.7182C72.8146 53.882 72.7419 54.1132 72.7826 54.3414L74.9176 65.9575C75.0223 66.5281 74.4318 66.9728 73.917 66.7095Z" fill="#486681"/>
<mask id="mask0" mask-type="alpha" maskUnits="userSpaceOnUse" x="0" y="0" width="126" height="99">
<path fill-rule="evenodd" clip-rule="evenodd" d="M0 98.7442H125.785V0.162598H0V98.7442Z" fill="white"/>
</mask>
<g mask="url(#mask0)">
<path fill-rule="evenodd" clip-rule="evenodd" d="M61.4296 7.45702H64.4343V0.159668H61.4296V7.45702Z" fill="#486681"/>
<path fill-rule="evenodd" clip-rule="evenodd" d="M73.4613 9.06044L70.5583 8.27628L71.4979 4.75342L74.4008 5.53758L73.4613 9.06044Z" fill="#486681"/>
<path fill-rule="evenodd" clip-rule="evenodd" d="M81.7642 12.9651L79.1638 11.4466L82.7997 5.13232L85.4001 6.6509L81.7642 12.9651Z" fill="#486681"/>
<path fill-rule="evenodd" clip-rule="evenodd" d="M88.7748 18.9056L86.6543 16.7638L89.2256 14.186L91.3461 16.3308L88.7748 18.9056Z" fill="#486681"/>
<path fill-rule="evenodd" clip-rule="evenodd" d="M94.0125 26.4676L92.5175 23.846L98.812 20.2178L100.307 22.8394L94.0125 26.4676Z" fill="#486681"/>
<path fill-rule="evenodd" clip-rule="evenodd" d="M97.0194 35.1682L96.4521 32.1954L99.9601 31.5195L100.527 34.4923L97.0194 35.1682Z" fill="#486681"/>
<path fill-rule="evenodd" clip-rule="evenodd" d="M28.8232 34.447L25.1204 33.262L26.0308 30.3799L29.7336 31.5649L28.8232 34.447Z" fill="#486681"/>
<path fill-rule="evenodd" clip-rule="evenodd" d="M32.1453 25.8479L25.9207 22.1027L27.4652 19.5073L33.6899 23.2555L32.1453 25.8479Z" fill="#486681"/>
<path fill-rule="evenodd" clip-rule="evenodd" d="M37.5311 18.3924L35.0093 15.7678L37.1705 13.6641L39.6923 16.2887L37.5311 18.3924Z" fill="#486681"/>
<path fill-rule="evenodd" clip-rule="evenodd" d="M44.658 12.5921L41.1414 6.21054L43.7709 4.74756L47.2875 11.1291L44.658 12.5921Z" fill="#486681"/>
<path fill-rule="evenodd" clip-rule="evenodd" d="M53.0375 8.85761L52.2114 5.50738L55.1289 4.78174L55.955 8.12904L53.0375 8.85761Z" fill="#486681"/>
<path fill-rule="evenodd" clip-rule="evenodd" d="M61.4296 98.7441H64.4343V91.4468H61.4296V98.7441Z" fill="#486681"/>
<path fill-rule="evenodd" clip-rule="evenodd" d="M71.4941 94.3278L70.5546 90.6089L73.4662 89.8657L74.4057 93.5817L71.4941 94.3278Z" fill="#486681"/>
<path fill-rule="evenodd" clip-rule="evenodd" d="M82.8008 93.7703L79.1649 87.459L81.7653 85.9404L85.4012 92.2517L82.8008 93.7703Z" fill="#486681"/>
<path fill-rule="evenodd" clip-rule="evenodd" d="M89.2262 84.7186L86.6549 82.1467L88.7754 80.002L91.3467 82.5768L89.2262 84.7186Z" fill="#486681"/>
<path fill-rule="evenodd" clip-rule="evenodd" d="M98.8117 78.6893L92.5172 75.0582L94.0123 72.4365L100.307 76.0676L98.8117 78.6893Z" fill="#486681"/>
<path fill-rule="evenodd" clip-rule="evenodd" d="M99.8797 67.6196L96.3514 66.6833L97.1193 63.7603L100.645 64.6966L99.8797 67.6196Z" fill="#486681"/>
<path fill-rule="evenodd" clip-rule="evenodd" d="M26.0283 68.5183L25.1207 65.6362L28.8235 64.457L29.7311 67.3391L26.0283 68.5183Z" fill="#486681"/>
<path fill-rule="evenodd" clip-rule="evenodd" d="M27.464 79.3977L25.9194 76.8024L32.1441 73.0542L33.6887 75.6466L27.464 79.3977Z" fill="#486681"/>
<path fill-rule="evenodd" clip-rule="evenodd" d="M37.1701 85.2381L35.0089 83.1344L37.5308 80.5127L39.692 82.6165L37.1701 85.2381Z" fill="#486681"/>
<path fill-rule="evenodd" clip-rule="evenodd" d="M43.7704 94.159L41.1409 92.6931L44.6575 86.3115L47.287 87.7745L43.7704 94.159Z" fill="#486681"/>
<path fill-rule="evenodd" clip-rule="evenodd" d="M55.1324 94.2993L52.2062 93.6088L53.0323 90.0684L55.9584 90.7589L55.1324 94.2993Z" fill="#486681"/>
</g>
</svg>
