<svg width="120" height="73" viewBox="0 0 120 73" fill="none" xmlns="http://www.w3.org/2000/svg">
<path fill-rule="evenodd" clip-rule="evenodd" d="M0 73H74V54H0V73Z" fill="#FFD542"/>
<path fill-rule="evenodd" clip-rule="evenodd" d="M38 73H56V54H38V73Z" fill="#FFEAA9"/>
<path fill-rule="evenodd" clip-rule="evenodd" d="M58 73H63V54H58V73Z" fill="#FFEAA9"/>
<path fill-rule="evenodd" clip-rule="evenodd" d="M66.7868 42H62.462H59.5728H43.1492H7V56H43.1492H59.5728H62.462H66.7868H76V42H66.7868Z" fill="#1F191A"/>
<path fill-rule="evenodd" clip-rule="evenodd" d="M7 53H81V34H7V53Z" fill="#FFD542"/>
<path fill-rule="evenodd" clip-rule="evenodd" d="M43 53H61V34H43V53Z" fill="#FFEAA9"/>
<path fill-rule="evenodd" clip-rule="evenodd" d="M66 53H71V34H66V53Z" fill="#FFEAA9"/>
<path fill-rule="evenodd" clip-rule="evenodd" d="M67.6545 22H63.2657H60.3352H43.6703H7V36H43.6703H60.3352H63.2657H67.6545H77V22H67.6545Z" fill="#1F191A"/>
<path fill-rule="evenodd" clip-rule="evenodd" d="M2 34H76V15H2V34Z" fill="#FFD542"/>
<path fill-rule="evenodd" clip-rule="evenodd" d="M42 34H60V15H42V34Z" fill="#FFEAA9"/>
<path fill-rule="evenodd" clip-rule="evenodd" d="M62 34H67V15H62V34Z" fill="#FFEAA9"/>
<path fill-rule="evenodd" clip-rule="evenodd" d="M75.8178 15.0884H65.7629H61.0381H57.8857H50.0375C45.4575 21.122 42.7074 28.594 42.7074 36.7226C42.7074 37.2284 42.7617 37.7234 42.7835 38.2184L42.7473 38.2579C42.7581 38.5879 42.8125 38.9107 42.8342 39.2336C42.8813 39.8793 42.932 40.5178 43.0081 41.1527C43.0734 41.6764 43.1639 42.2002 43.2509 42.7167C43.3596 43.3588 43.4683 44.0009 43.6132 44.6251C43.7219 45.1094 43.856 45.5829 43.9828 46.0599C44.1604 46.7056 44.3343 47.3513 44.5444 47.9827C44.6858 48.4131 44.8561 48.8328 45.0119 49.2561C45.2546 49.9054 45.4974 50.5583 45.7764 51.186C45.8054 51.2542 45.8271 51.3295 45.8597 51.3976L45.8706 51.3833C46.6786 53.1697 47.6171 54.8844 48.6932 56.5022L48.6823 56.5094C48.7041 56.5416 48.7294 56.5668 48.7476 56.5955C49.5773 57.833 50.4868 59.0096 51.4579 60.136C51.5086 60.1934 51.5484 60.2615 51.5992 60.3189L51.6137 60.3046C57.0161 66.4781 64.502 70.7791 72.9843 72.2211V55.6233V53.324H78.6477V33.9891H75.8178V15.0884Z" fill="#1F191A"/>
<mask id="mask0" mask-type="alpha" maskUnits="userSpaceOnUse" x="46" y="0" width="73" height="73">
<path fill-rule="evenodd" clip-rule="evenodd" d="M46.0891 0.656982H118.951V72.7913H46.0891V0.656982Z" fill="white"/>
</mask>
<g mask="url(#mask0)">
<path fill-rule="evenodd" clip-rule="evenodd" d="M118.952 36.7235C118.952 56.643 102.643 72.7924 82.5185 72.7924C62.4016 72.7924 46.0891 56.643 46.0891 36.7235C46.0891 16.804 62.4016 0.654541 82.5185 0.654541C102.643 0.654541 118.952 16.804 118.952 36.7235Z" fill="#FFD542"/>
</g>
<path fill-rule="evenodd" clip-rule="evenodd" d="M114.799 36.7233C114.799 54.3721 100.346 68.6777 82.5186 68.6777C64.6916 68.6777 50.2416 54.3721 50.2416 36.7233C50.2416 19.0744 64.6916 4.7688 82.5186 4.7688C100.346 4.7688 114.799 19.0744 114.799 36.7233Z" fill="#FFDB6C"/>
<path fill-rule="evenodd" clip-rule="evenodd" d="M49.2408 51.3982L97.3411 3.77856C93.2576 1.97422 88.7827 0.890898 84.0723 0.693604L46.1283 38.2584C46.324 42.9253 47.4218 47.3518 49.2408 51.3982Z" fill="white"/>
<path fill-rule="evenodd" clip-rule="evenodd" d="M54.9798 60.3204L106.356 9.45805C105.138 8.41419 103.856 7.45283 102.504 6.57397L52.063 56.5109C52.9507 57.8453 53.9254 59.1152 54.9798 60.3204Z" fill="white"/>
<path fill-rule="evenodd" clip-rule="evenodd" d="M86.7572 41.8241C86.7572 41.3147 86.6232 40.895 86.355 40.5543C86.0833 40.2171 85.5941 39.9014 84.8876 39.6108V44.0769C86.134 43.693 86.7572 42.9433 86.7572 41.8241ZM80.996 28.6055C79.9452 28.9678 79.4198 29.6386 79.4198 30.6035C79.4198 31.5756 79.9452 32.311 80.996 32.8168V28.6055ZM80.996 51.6672V49.0199C77.8908 48.532 75.0319 47.1402 72.4122 44.8409L75.8255 40.7336C77.7313 42.3836 79.4561 43.4347 80.996 43.8974V38.4844C78.4307 37.8315 76.5465 36.9563 75.3472 35.8514C74.1515 34.7502 73.55 33.1646 73.55 31.0948C73.55 29.025 74.2348 27.3176 75.6044 25.9724C76.9741 24.6272 78.7713 23.8237 80.996 23.5546V21.7754H84.8875V23.63C87.3333 23.9671 89.7646 24.9751 92.1886 26.6468L89.1776 30.9298C87.6377 29.8393 86.2064 29.1147 84.8875 28.7488V33.9789C87.5253 34.6605 89.4747 35.568 90.7393 36.7052C91.9966 37.8459 92.6271 39.4529 92.6271 41.5371C92.6271 43.6176 91.9241 45.3359 90.5182 46.6918C89.1087 48.0478 87.2355 48.8585 84.8875 49.1239V51.6672H80.996Z" fill="#3F3E40"/>
</svg>
