<svg width="101" height="109" viewBox="0 0 101 109" fill="none" xmlns="http://www.w3.org/2000/svg">
<path fill-rule="evenodd" clip-rule="evenodd" d="M12.2472 24L0 35.8651V109H58V24H12.2472Z" fill="white"/>
<path fill-rule="evenodd" clip-rule="evenodd" d="M11.9683 24L0 36.0109H11.9683V24Z" fill="#E6E8E9"/>
<mask id="mask0" mask-type="alpha" maskUnits="userSpaceOnUse" x="0" y="35" width="13" height="13">
<path fill-rule="evenodd" clip-rule="evenodd" d="M0 35.6211V47.8229H12.4717V35.6211H0Z" fill="white"/>
</mask>
<g mask="url(#mask0)">
<path fill-rule="evenodd" clip-rule="evenodd" d="M12.4717 35.6211L-0.000488281 47.8229V35.6211H12.4717Z" fill="#D2D4D5"/>
</g>
<path fill-rule="evenodd" clip-rule="evenodd" d="M13.8096 39.7066H51.5556V36.011H13.8096V39.7066Z" fill="#D2D4D5"/>
<path fill-rule="evenodd" clip-rule="evenodd" d="M13.8096 43.3616H34.9842V41.5544H13.8096V43.3616Z" fill="#E6E8E9"/>
<path fill-rule="evenodd" clip-rule="evenodd" d="M26.6984 53.5263H50.6349V51.7173H26.6984V53.5263Z" fill="#E6E8E9"/>
<path fill-rule="evenodd" clip-rule="evenodd" d="M26.6984 59.9957H50.6349V58.1848H26.6984V59.9957Z" fill="#E6E8E9"/>
<path fill-rule="evenodd" clip-rule="evenodd" d="M26.6984 66.4593H50.6349V64.6521H26.6984V66.4593Z" fill="#E6E8E9"/>
<path fill-rule="evenodd" clip-rule="evenodd" d="M26.6984 72.9287H50.6349V71.1196H26.6984V72.9287Z" fill="#E6E8E9"/>
<path fill-rule="evenodd" clip-rule="evenodd" d="M6.44446 78.474H51.5556V76.6631H6.44446V78.474Z" fill="#E6E8E9"/>
<path fill-rule="evenodd" clip-rule="evenodd" d="M6.44446 84.9412H51.5556V83.1304H6.44446V84.9412Z" fill="#E6E8E9"/>
<path fill-rule="evenodd" clip-rule="evenodd" d="M6.44446 91.4069H51.5556V89.5979H6.44446V91.4069Z" fill="#E6E8E9"/>
<path fill-rule="evenodd" clip-rule="evenodd" d="M6.44446 97.8742H51.5556V96.0652H6.44446V97.8742Z" fill="#E6E8E9"/>
<path fill-rule="evenodd" clip-rule="evenodd" d="M6.44446 103.42H51.5556V101.609H6.44446V103.42Z" fill="#E6E8E9"/>
<path fill-rule="evenodd" clip-rule="evenodd" d="M12.9695 62.6511V53.0227C7.7323 53.0227 3.48901 57.3322 3.48901 62.6511C3.48901 67.97 7.7323 72.2816 12.9695 72.2816C18.2066 72.2816 22.452 67.97 22.452 62.6511H12.9695Z" fill="#D2D4D5"/>
<path fill-rule="evenodd" clip-rule="evenodd" d="M14.2098 52.1338V61.7643H23.6924C23.6924 56.4454 19.447 52.1338 14.2098 52.1338Z" fill="#9013FE"/>
<path fill-rule="evenodd" clip-rule="evenodd" d="M63.5974 65.1208C63.5974 67.9289 61.2927 70.2035 58.4545 70.2035C55.6141 70.2035 53.3116 67.9289 53.3116 65.1208C53.3116 62.317 55.6141 60.0425 58.4545 60.0425C61.2927 60.0425 63.5974 62.317 63.5974 65.1208Z" fill="#465462"/>
<path fill-rule="evenodd" clip-rule="evenodd" d="M57.987 60.0446C57.987 63.104 55.4741 65.5847 52.3755 65.5847C49.2769 65.5847 46.7662 63.104 46.7662 60.0446C46.7662 56.9829 49.2769 54.5 52.3755 54.5C55.4741 54.5 57.987 56.9829 57.987 60.0446Z" fill="#465462"/>
<path fill-rule="evenodd" clip-rule="evenodd" d="M52.3767 53.1145C52.3767 56.9367 49.2364 60.0425 45.3637 60.0425C41.4864 60.0425 38.3507 56.9367 38.3507 53.1145C38.3507 49.2877 41.4864 46.1865 45.3637 46.1865C49.2364 46.1865 52.3767 49.2877 52.3767 53.1145Z" fill="#424F59"/>
<path fill-rule="evenodd" clip-rule="evenodd" d="M49.5714 48.4958C49.5714 53.8526 45.1768 58.1949 39.7577 58.1949C34.3341 58.1949 29.9351 53.8526 29.9351 48.4958C29.9351 43.1389 34.3341 38.7966 39.7577 38.7966C45.1768 38.7966 49.5714 43.1389 49.5714 48.4958Z" fill="#004669"/>
<path fill-rule="evenodd" clip-rule="evenodd" d="M50.5065 34.1758C50.5065 41.3193 45.6861 47.1103 39.7555 47.1103C33.8136 47.1103 29 41.3193 29 34.1758C29 27.0346 33.8136 21.2458 39.7555 21.2458C45.6861 21.2458 50.5065 27.0346 50.5065 34.1758Z" fill="#004669"/>
<path fill-rule="evenodd" clip-rule="evenodd" d="M55.1818 19.3995C55.1818 25.0136 50.5779 29.5593 44.8972 29.5593C39.2142 29.5593 34.6104 25.0136 34.6104 19.3995C34.6104 13.7831 39.2142 9.2373 44.8972 9.2373C50.5779 9.2373 55.1818 13.7831 55.1818 19.3995Z" fill="#004669"/>
<path fill-rule="evenodd" clip-rule="evenodd" d="M63.5974 13.393C63.5974 19.2559 58.7854 24.017 52.8487 24.017C46.9075 24.017 42.0909 19.2559 42.0909 13.393C42.0909 7.53013 46.9075 2.77124 52.8487 2.77124C58.7854 2.77124 63.5974 7.53013 63.5974 13.393Z" fill="#004669"/>
<path fill-rule="evenodd" clip-rule="evenodd" d="M64.3141 63.7113C64.3141 60.7116 62.0282 58.2778 59.2082 58.2778C59.1813 58.2778 59.1635 58.2867 59.1434 58.2867C59.1635 58.0541 59.2082 57.8282 59.2082 57.5844C59.2082 55.3206 58.1333 53.3275 56.4909 52.1464C56.5848 51.5961 56.6429 51.0346 56.6429 50.4575C56.6429 48.3279 55.9725 46.3706 54.8396 44.7958C56.368 42.6059 57.3065 39.718 57.3065 36.5371C57.3065 34.5932 56.949 32.7656 56.3345 31.1304C58.0574 30.2491 59.4852 28.8107 60.3925 27.0279C65.3331 26.5604 69.2079 22.1514 69.2079 16.7738C69.2079 11.0808 64.8773 6.46606 59.5232 6.46606C55.396 6.46606 51.8855 9.21972 50.4911 13.0829C46.4287 14.0291 43.3897 17.8655 43.3897 22.469C43.3897 23.4891 43.5438 24.4666 43.8187 25.3905C40.5897 27.3545 38.3507 31.6002 38.3507 36.5371C38.3507 39.718 39.2892 42.6059 40.811 44.7958C39.6825 46.3706 39.0121 48.3279 39.0121 50.4575C39.0121 55.4212 42.6388 59.4701 47.2242 59.8034C48.0822 62.3423 50.3392 64.1654 53.0206 64.1654C53.4005 64.1654 53.7692 64.1184 54.1312 64.0424C54.3011 66.8855 56.4909 69.1448 59.2082 69.1448C59.3311 69.1448 59.4406 69.1135 59.5523 69.1068C59.7042 71.7777 61.7623 73.8983 64.3141 73.8983C66.9554 73.8983 69.1028 71.6166 69.1028 68.807C69.1028 65.993 66.9554 63.7113 64.3141 63.7113Z" fill="#303941"/>
<path fill-rule="evenodd" clip-rule="evenodd" d="M66.4026 66.0477C66.4026 68.853 68.7051 71.1271 71.5498 71.1271C74.3858 71.1271 76.6883 68.853 76.6883 66.0477C76.6883 63.2401 74.3858 60.9661 71.5498 60.9661C68.7051 60.9661 66.4026 63.2401 66.4026 66.0477Z" fill="#465462"/>
<path fill-rule="evenodd" clip-rule="evenodd" d="M73.8831 60.9673C73.8831 64.0296 76.3912 66.5086 79.4901 66.5086C82.5957 66.5086 85.1038 64.0296 85.1038 60.9673C85.1038 57.9072 82.5957 55.4238 79.4901 55.4238C76.3912 55.4238 73.8831 57.9072 73.8831 60.9673Z" fill="#465462"/>
<path fill-rule="evenodd" clip-rule="evenodd" d="M77.6234 54.0392C77.6234 57.8621 80.7581 60.966 84.6341 60.966C88.5101 60.966 91.6494 57.8621 91.6494 54.0392C91.6494 50.2118 88.5101 47.1101 84.6341 47.1101C80.7581 47.1101 77.6234 50.2118 77.6234 54.0392Z" fill="#465462"/>
<path fill-rule="evenodd" clip-rule="evenodd" d="M81.3636 50.3432C81.3636 55.7 85.7637 60.0423 91.1818 60.0423C96.6067 60.0423 101 55.7 101 50.3432C101 44.9864 96.6067 40.644 91.1818 40.644C85.7637 40.644 81.3636 44.9864 81.3636 50.3432Z" fill="#004669"/>
<path fill-rule="evenodd" clip-rule="evenodd" d="M79.4935 32.7924C79.4935 39.6779 84.3134 45.2627 90.2479 45.2627C96.187 45.2627 101 39.6779 101 32.7924C101 25.9068 96.187 20.322 90.2479 20.322C84.3134 20.322 79.4935 25.9068 79.4935 32.7924Z" fill="#004669"/>
<path fill-rule="evenodd" clip-rule="evenodd" d="M74.8182 19.3995C74.8182 25.0136 79.4198 29.5593 85.1028 29.5593C90.7904 29.5593 95.3897 25.0136 95.3897 19.3995C95.3897 13.7831 90.7904 9.2373 85.1028 9.2373C79.4198 9.2373 74.8182 13.7831 74.8182 19.3995Z" fill="#004669"/>
<path fill-rule="evenodd" clip-rule="evenodd" d="M68.7689 60.98C68.5719 57.9932 70.7337 55.4302 73.5813 55.2518C73.604 55.2495 73.6266 55.2585 73.6515 55.2562C73.613 55.0265 73.5542 54.799 73.5383 54.5625C73.3957 52.3096 74.3532 50.2552 75.9332 48.9749C75.7997 48.4373 75.7046 47.8819 75.6729 47.3041C75.5325 45.1851 76.0962 43.1954 77.1307 41.5559C75.4511 39.477 74.3147 36.6619 74.111 33.4945C73.991 31.5628 74.2332 29.7158 74.7448 28.0518C72.9475 27.2867 71.415 25.9461 70.3851 24.2263C65.3576 24.0702 61.1564 19.9257 60.8146 14.5723C60.4524 8.91101 64.5405 4.04829 69.9505 3.7137C74.1246 3.45049 77.8482 5.96438 79.5029 9.72294C83.6702 10.41 86.9887 14.0392 87.2852 18.6164C87.3486 19.6313 87.2558 20.6172 87.0385 21.5496C90.4294 23.2984 92.9669 27.3871 93.2838 32.2989C93.4875 35.4663 92.7201 38.4018 91.319 40.6726C92.5549 42.1715 93.3698 44.0765 93.4988 46.1955C93.818 51.1319 90.409 55.3945 85.798 56.0102C85.0872 58.5888 82.9255 60.5495 80.2069 60.719C79.8266 60.7457 79.4509 60.7168 79.0774 60.6699C79.1023 63.505 77.0175 65.8917 74.2785 66.0635C74.1563 66.0702 74.0408 66.0501 73.9276 66.0501C73.9412 68.7157 71.99 70.9597 69.4163 71.118C66.7407 71.2831 64.4318 69.1529 64.2485 66.349C64.0674 63.5496 66.0888 61.145 68.7689 60.98Z" fill="#303941"/>
<path fill-rule="evenodd" clip-rule="evenodd" d="M66.4026 14.3177C66.4026 20.1834 71.2209 24.9406 77.157 24.9406C83.0953 24.9406 87.9091 20.1834 87.9091 14.3177C87.9091 8.452 83.0953 3.69482 77.157 3.69482C71.2209 3.69482 66.4026 8.452 66.4026 14.3177Z" fill="#004669"/>
<path fill-rule="evenodd" clip-rule="evenodd" d="M55.1818 10.6251C55.1818 16.4886 59.9899 21.2458 65.9316 21.2458C71.8779 21.2458 76.6883 16.4886 76.6883 10.6251C76.6883 4.75717 71.8779 0 65.9316 0C59.9899 0 55.1818 4.75717 55.1818 10.6251Z" fill="#004669"/>
<path fill-rule="evenodd" clip-rule="evenodd" d="M101 108.076V89.3026C101 81.3384 94.3138 74.822 86.1398 74.822H46.6631C38.4913 74.822 31.8052 81.3384 31.8052 89.3026V108.076H101Z" fill="#F8E71C"/>
<path fill-rule="evenodd" clip-rule="evenodd" d="M73.131 75.0998H83.2338L65.9935 104.381L47.7013 75.0998H58.1495L58.3559 62.8135H73.131V75.0998Z" fill="#FFE0BD"/>
<path fill-rule="evenodd" clip-rule="evenodd" d="M46.7728 75.2275C38.5407 75.2275 31.8052 81.8452 31.8052 89.9363V109H46.0098L73.8831 71.1259V66.5085H69.1096H58.979L58.87 75.2275H46.7728Z" fill="#F5A623"/>
<path fill-rule="evenodd" clip-rule="evenodd" d="M65.9362 70.2033C54.8799 70.2033 45.8312 61.2371 45.8312 50.2816V32.8516C45.8312 21.8939 54.8799 12.9321 65.9362 12.9321C76.9925 12.9321 86.039 21.8939 86.039 32.8516V50.2816C86.039 61.2371 76.9925 70.2033 65.9362 70.2033Z" fill="#FFE6CA"/>
<path fill-rule="evenodd" clip-rule="evenodd" d="M65.5913 12.9321C65.55 12.9321 65.5088 12.9366 65.4675 12.9388V70.1966C65.5088 70.1966 65.55 70.2033 65.5913 70.2033C76.8373 70.2033 86.039 61.2393 86.039 50.2816V32.8516C86.039 21.8961 76.8373 12.9321 65.5913 12.9321Z" fill="#FFE0BD"/>
<path fill-rule="evenodd" clip-rule="evenodd" d="M45.8808 32.718C45.8808 32.718 53.7364 33.2393 58.2604 30.0278C59.8499 28.9013 65.8623 25.0626 65.8623 25.0626C65.8623 25.0626 67.8358 27.7904 67.8358 32.506L72.784 24.1393L75.2626 30.7169L85.9449 34.178C85.9449 34.178 88.5246 4.61865 66.6616 4.61865C55.0947 4.61865 45.0366 9.50434 45.8808 32.718Z" fill="#004669"/>
<path fill-rule="evenodd" clip-rule="evenodd" d="M65.2981 24.9407C65.2981 24.9407 58.8393 27.9449 57.1201 28.8443C53.4964 30.7443 48.2959 30.5079 45.8312 30.2566C45.8357 30.9364 45.8221 31.5846 45.8492 32.3003C45.8492 32.3003 53.7517 32.8006 58.3061 29.731C59.6299 28.8379 64.0081 26.1694 65.4675 25.2806C65.3704 25.0758 65.2981 24.9407 65.2981 24.9407Z" fill="#6B747B"/>
<path fill-rule="evenodd" clip-rule="evenodd" d="M66.7028 4.61865C66.602 4.61865 66.5034 4.62528 66.4026 4.62749C67.0657 4.66504 67.7311 4.72025 68.401 4.79535C86.0909 6.78983 85.3718 26.5225 84.5092 33.7119L85.9453 34.178C85.9453 34.178 88.5173 4.61865 66.7028 4.61865Z" fill="#303941"/>
</svg>
