<svg width="101" height="120" viewBox="0 0 101 120" fill="none" xmlns="http://www.w3.org/2000/svg">
<path fill-rule="evenodd" clip-rule="evenodd" d="M0 0V118H80V23.604L55.7061 0H0Z" fill="white"/>
<path fill-rule="evenodd" clip-rule="evenodd" d="M56 0L56.3213 23L80 22.0959L56 0Z" fill="#CFDBEA"/>
<path fill-rule="evenodd" clip-rule="evenodd" d="M37 0L56 23L55.6654 0H37Z" fill="#A8BACE"/>
<mask id="mask0" mask-type="alpha" maskUnits="userSpaceOnUse" x="49" y="69" width="52" height="51">
<path fill-rule="evenodd" clip-rule="evenodd" d="M100.182 69.6768V119.902H49.903V69.6768H100.182V69.6768Z" fill="white"/>
</mask>
<g mask="url(#mask0)">
<path fill-rule="evenodd" clip-rule="evenodd" d="M100.182 94.7914C100.182 108.661 88.9254 119.902 75.0407 119.902C61.156 119.902 49.903 108.661 49.903 94.7914C49.903 80.9216 61.156 69.6768 75.0407 69.6768C88.9254 69.6768 100.182 80.9216 100.182 94.7914Z" fill="#FFF323"/>
</g>
<path fill-rule="evenodd" clip-rule="evenodd" d="M61.0323 98.1354L65.4934 93.5148L72.2332 99.3175L88.5049 81.2119L93.7322 85.8365L73.3966 108.37L61.0323 98.1354Z" fill="#8798A7"/>
<path fill-rule="evenodd" clip-rule="evenodd" d="M35.7006 24.3869H10.8838C9.48367 24.3869 8.3363 23.2408 8.3363 21.8422C8.3363 20.4436 9.48367 19.2935 10.8838 19.2935H35.7006C37.1007 19.2935 38.248 20.4436 38.248 21.8422C38.248 23.2408 37.1007 24.3869 35.7006 24.3869Z" fill="#A8BACE"/>
<path fill-rule="evenodd" clip-rule="evenodd" d="M72.4956 37.3625H10.8869C9.48281 37.3625 8.33545 36.2164 8.33545 34.8178C8.33545 33.4152 9.48281 32.269 10.8869 32.269H72.4956C73.8997 32.269 75.0431 33.4152 75.0431 34.8178C75.0431 36.2164 73.8997 37.3625 72.4956 37.3625Z" fill="#A8BACE"/>
<path fill-rule="evenodd" clip-rule="evenodd" d="M72.4956 46.2243H10.8869C9.48281 46.2243 8.33545 45.0782 8.33545 43.6796C8.33545 42.281 9.48281 41.1309 10.8869 41.1309H72.4956C73.8997 41.1309 75.0431 42.281 75.0431 43.6796C75.0431 45.0782 73.8997 46.2243 72.4956 46.2243Z" fill="#A8BACE"/>
<path fill-rule="evenodd" clip-rule="evenodd" d="M72.4956 55.0891H10.8869C9.48281 55.0891 8.33545 53.9429 8.33545 52.5443C8.33545 51.1417 9.48281 49.9956 10.8869 49.9956H72.4956C73.8997 49.9956 75.0431 51.1417 75.0431 52.5443C75.0431 53.9429 73.8997 55.0891 72.4956 55.0891Z" fill="#A8BACE"/>
<path fill-rule="evenodd" clip-rule="evenodd" d="M72.4956 63.9528H10.8869C9.48281 63.9528 8.33545 62.8067 8.33545 61.4081C8.33545 60.0055 9.48281 58.8594 10.8869 58.8594H72.4956C73.8997 58.8594 75.0431 60.0055 75.0431 61.4081C75.0431 62.8067 73.8997 63.9528 72.4956 63.9528Z" fill="#A8BACE"/>
<path fill-rule="evenodd" clip-rule="evenodd" d="M35.7006 107.414H10.8838C9.48367 107.414 8.3363 106.268 8.3363 104.87C8.3363 103.471 9.48367 102.321 10.8838 102.321H35.7006C37.1007 102.321 38.248 103.471 38.248 104.87C38.248 106.268 37.1007 107.414 35.7006 107.414Z" fill="#A8BACE"/>
<path fill-rule="evenodd" clip-rule="evenodd" d="M35.7006 99.883H10.8838C9.48367 99.883 8.3363 98.7369 8.3363 97.3383C8.3363 95.9357 9.48367 94.7896 10.8838 94.7896H35.7006C37.1007 94.7896 38.248 95.9357 38.248 97.3383C38.248 98.7369 37.1007 99.883 35.7006 99.883Z" fill="#A8BACE"/>
</svg>
