<svg width="201" height="8" viewBox="0 0 201 8" fill="none" xmlns="http://www.w3.org/2000/svg">
<path fill-rule="evenodd" clip-rule="evenodd" d="M195.838 5.98889C194.629 7.08562 193.132 7.73245 191.44 7.92865C189.448 8.1597 187.82 7.52598 186.553 6.07373C185.762 5.1668 185.069 4.18183 184.315 3.24482C183.516 2.25152 182.626 1.37629 181.24 1.1682C179.952 0.974742 178.806 1.26808 177.874 2.13356C177.308 2.65977 176.823 3.27073 176.331 3.86604C175.74 4.58165 175.223 5.3569 174.599 6.04396C172.239 8.64406 168.783 8.65544 166.43 6.05747C165.657 5.20419 165.011 4.24635 164.284 3.35313C163.938 2.92761 163.568 2.51224 163.159 2.14301C161.618 0.75253 159.261 0.729465 157.752 2.15063C157.028 2.83271 156.442 3.65104 155.805 4.41644C155.354 4.9582 154.953 5.54091 154.477 6.06042C152.106 8.64599 148.662 8.64883 146.305 6.04274C145.545 5.20145 144.909 4.25722 144.194 3.37681C143.848 2.95108 143.478 2.53551 143.071 2.16455C141.515 0.747755 139.159 0.73038 137.623 2.1613C137.007 2.73456 136.498 3.41481 135.961 4.06265C135.413 4.72471 134.931 5.44042 134.35 6.07394C131.999 8.63989 128.558 8.64385 126.216 6.06601C125.453 5.22675 124.819 4.28059 124.103 3.40079C123.746 2.96205 123.366 2.53277 122.945 2.15113C121.405 0.754867 119.071 0.734647 117.535 2.14006C116.927 2.69635 116.424 3.36086 115.899 3.99579C115.384 4.61843 114.937 5.29391 114.4 5.89775C112.623 7.89786 110.551 8.44349 107.938 7.63643C106.568 7.21314 105.404 6.45821 104.363 5.52597C103.809 5.02993 103.286 4.50057 102.769 3.96815C102.013 3.18945 101.265 2.4022 100.5 1.5985C99.7348 2.4022 98.987 3.18945 98.231 3.96815C97.7141 4.50057 97.1911 5.02993 96.637 5.52597C95.5961 6.45821 94.4324 7.21314 93.062 7.63643C90.4491 8.44349 88.3767 7.89786 86.5999 5.89775C86.0635 5.29391 85.6158 4.61843 85.101 3.99579C84.5761 3.36086 84.0725 2.69635 83.4649 2.14006C81.9294 0.734647 79.5951 0.754867 78.055 2.15113C77.6341 2.53277 77.254 2.96205 76.8969 3.40079C76.1808 4.28059 75.5471 5.22675 74.7845 6.06601C72.442 8.64385 69.0006 8.63989 66.6496 6.07394C66.0691 5.44042 65.5872 4.72471 65.0391 4.06265C64.5025 3.41481 63.9927 2.73456 63.3772 2.1613C61.8412 0.73038 59.485 0.747755 57.9289 2.16455C57.5215 2.53551 57.1521 2.95108 56.8063 3.37681C56.0912 4.25722 55.4555 5.20145 54.6948 6.04274C52.3385 8.64883 48.8942 8.64599 46.5233 6.06042C46.047 5.54091 45.6464 4.9582 45.1954 4.41644C44.5583 3.65104 43.9723 2.83271 43.248 2.15063C41.7393 0.729465 39.3815 0.75253 37.8411 2.14301C37.4322 2.51224 37.0623 2.92761 36.7161 3.35313C35.9893 4.24635 35.343 5.20419 34.57 6.05747C32.2166 8.65544 28.7611 8.64406 26.4006 6.04396C25.7769 5.3569 25.2599 4.58165 24.6687 3.86604C24.1769 3.27073 23.6922 2.65977 23.1259 2.13356C22.1943 1.26808 21.0482 0.974742 19.7598 1.1682C18.3737 1.37629 17.4844 2.25152 16.685 3.24482C15.9308 4.18183 15.2378 5.1668 14.4469 6.07373C13.1804 7.52598 11.5519 8.1597 9.55977 7.92865C7.86817 7.73245 6.37131 7.08562 5.16186 5.98889C3.38469 4.37722 1.72284 2.64829 0 0.957774C0.214866 0.699797 0.422636 0.450253 0.695216 0.12298C1.12389 0.509692 1.5281 0.83666 1.88614 1.20498C2.64415 1.98481 3.37166 2.79196 4.12354 3.57748C5.21534 4.718 6.38995 5.75845 7.89306 6.39664C10.2619 7.40253 12.2559 6.96939 13.892 5.05341C14.4053 4.4522 14.8401 3.78963 15.3438 3.1802C15.8577 2.55847 16.364 1.91958 16.9577 1.37192C18.9219 -0.440018 21.9859 -0.439307 23.9341 1.39194C24.6344 2.05024 25.2056 2.83576 25.829 3.56833C26.4636 4.31422 27.0263 5.12798 27.7331 5.80346C29.2933 7.29453 31.6719 7.27573 33.2572 5.81545C33.6624 5.44225 34.03 5.02546 34.3746 4.59872C35.0441 3.76982 35.6396 2.8826 36.346 2.08499C38.7998 -0.685701 42.2628 -0.69454 44.7271 2.05593C45.3234 2.72135 45.8183 3.46947 46.3861 4.15978C46.8657 4.7429 47.3373 5.34339 47.8931 5.85558C49.4187 7.26161 51.7664 7.25886 53.3062 5.87164C53.7283 5.49143 54.1077 5.06123 54.465 4.6226C55.1923 3.72989 55.8346 2.76798 56.6125 1.91958C58.9535 -0.633374 62.366 -0.627887 64.7114 1.91866C65.3517 2.61375 65.8783 3.40404 66.4793 4.13387C66.9592 4.71689 67.4273 5.31951 67.9804 5.83455C69.5176 7.26628 71.8692 7.26689 73.4323 5.85863C73.8416 5.4899 74.2093 5.07241 74.5551 4.64678C75.2703 3.76636 75.9068 2.82275 76.6665 1.98074C79.0555 -0.666904 82.5205 -0.649631 84.9068 2.00818C85.5153 2.68589 86.0253 3.44427 86.6007 4.15033C87.0453 4.69596 87.49 5.24686 87.99 5.74422C88.9678 6.7171 90.1889 7.02497 91.5704 6.85539C93.0405 6.67493 94.333 6.0844 95.3825 5.12544C96.734 3.89053 97.9745 2.54394 99.273 1.25487C99.6272 0.903212 100.011 0.576447 100.405 0.223062C100.432 0.191056 100.458 0.158847 100.486 0.125419C100.491 0.129788 100.495 0.133852 100.5 0.138221C100.505 0.133852 100.509 0.129788 100.514 0.125419C100.542 0.158847 100.568 0.191056 100.595 0.223062C100.99 0.576447 101.373 0.903212 101.727 1.25487C103.025 2.54394 104.266 3.89053 105.618 5.12544C106.667 6.0844 107.959 6.67493 109.43 6.85539C110.811 7.02497 112.032 6.7171 113.01 5.74422C113.51 5.24686 113.955 4.69596 114.399 4.15033C114.975 3.44427 115.485 2.68589 116.093 2.00818C118.48 -0.649631 121.944 -0.666904 124.333 1.98074C125.093 2.82275 125.73 3.76636 126.445 4.64678C126.791 5.07241 127.158 5.4899 127.568 5.85863C129.131 7.26689 131.482 7.26628 133.02 5.83455C133.573 5.31951 134.041 4.71689 134.521 4.13387C135.122 3.40404 135.648 2.61375 136.289 1.91866C138.634 -0.627887 142.047 -0.633374 144.387 1.91958C145.166 2.76798 145.808 3.72989 146.535 4.6226C146.892 5.06123 147.272 5.49143 147.694 5.87164C149.234 7.25886 151.581 7.26161 153.107 5.85558C153.663 5.34339 154.134 4.7429 154.614 4.15978C155.182 3.46947 155.677 2.72135 156.273 2.05593C158.737 -0.69454 162.2 -0.685701 164.654 2.08499C165.36 2.8826 165.956 3.76982 166.625 4.59872C166.97 5.02546 167.338 5.44225 167.743 5.81545C169.328 7.27573 171.707 7.29453 173.267 5.80346C173.974 5.12798 174.536 4.31422 175.171 3.56833C175.795 2.83565 176.366 2.05024 177.066 1.39194C179.014 -0.439307 182.078 -0.440018 184.042 1.37192C184.636 1.91958 185.142 2.55847 185.656 3.1802C186.16 3.78963 186.595 4.4522 187.108 5.05341C188.744 6.96939 190.738 7.40253 193.107 6.39664C194.61 5.75845 195.785 4.718 196.877 3.57748C197.628 2.79196 198.356 1.98481 199.114 1.20498C199.472 0.83666 199.876 0.509692 200.305 0.12298C200.577 0.450253 200.785 0.699797 201 0.957774C199.277 2.64829 197.615 4.37722 195.838 5.98889Z" fill="#F8E71C"/>
</svg>
