<svg width="451" height="56" viewBox="0 0 451 56" fill="none" xmlns="http://www.w3.org/2000/svg">
<path d="M47.5 1.5L1.5 54.5" stroke="#9013FE" stroke-width="2" stroke-linecap="square"/>
<path d="M63.5 1.5L17.5 54.5" stroke="#9013FE" stroke-width="2" stroke-linecap="square"/>
<path d="M79.5 1.5L33.5 54.5" stroke="#9013FE" stroke-width="2" stroke-linecap="square"/>
<path d="M95.5 1.5L49.5 54.5" stroke="#9013FE" stroke-width="2" stroke-linecap="square"/>
<path d="M127.5 1.5L81.5 54.5" stroke="#9013FE" stroke-width="2" stroke-linecap="square"/>
<path d="M160.5 1.5L114.5 54.5" stroke="#9013FE" stroke-width="2" stroke-linecap="square"/>
<path d="M192.5 1.5L146.5 54.5" stroke="#9013FE" stroke-width="2" stroke-linecap="square"/>
<path d="M240.5 1.5L194.5 54.5" stroke="#9013FE" stroke-width="2" stroke-linecap="square"/>
<path d="M111.5 1.5L65.5 54.5" stroke="#9013FE" stroke-width="2" stroke-linecap="square"/>
<path d="M143.5 1.5L97.5 54.5" stroke="#9013FE" stroke-width="2" stroke-linecap="square"/>
<path d="M176.5 1.5L130.5 54.5" stroke="#9013FE" stroke-width="2" stroke-linecap="square"/>
<path d="M208.5 1.5L162.5 54.5" stroke="#9013FE" stroke-width="2" stroke-linecap="square"/>
<path d="M272.5 1.5L226.5 54.5" stroke="#9013FE" stroke-width="2" stroke-linecap="square"/>
<path d="M304.5 1.5L258.5 54.5" stroke="#9013FE" stroke-width="2" stroke-linecap="square"/>
<path d="M336.5 1.5L290.5 54.5" stroke="#9013FE" stroke-width="2" stroke-linecap="square"/>
<path d="M369.5 1.5L323.5 54.5" stroke="#9013FE" stroke-width="2" stroke-linecap="square"/>
<path d="M256.5 1.5L210.5 54.5" stroke="#9013FE" stroke-width="2" stroke-linecap="square"/>
<path d="M320.5 1.5L274.5 54.5" stroke="#9013FE" stroke-width="2" stroke-linecap="square"/>
<path d="M385.5 1.5L339.5 54.5" stroke="#9013FE" stroke-width="2" stroke-linecap="square"/>
<path d="M224.5 1.5L178.5 54.5" stroke="#9013FE" stroke-width="2" stroke-linecap="square"/>
<path d="M288.5 1.5L242.5 54.5" stroke="#9013FE" stroke-width="2" stroke-linecap="square"/>
<path d="M353.5 1.5L307.5 54.5" stroke="#9013FE" stroke-width="2" stroke-linecap="square"/>
<path d="M401.5 1.5L355.5 54.5" stroke="#9013FE" stroke-width="2" stroke-linecap="square"/>
<path d="M417.5 1.5L371.5 54.5" stroke="#9013FE" stroke-width="2" stroke-linecap="square"/>
<path d="M433.5 1.5L387.5 54.5" stroke="#9013FE" stroke-width="2" stroke-linecap="square"/>
<path d="M449.5 1.5L403.5 54.5" stroke="#9013FE" stroke-width="2" stroke-linecap="square"/>
</svg>
