<svg width="75" height="604" viewBox="0 0 75 604" fill="none" xmlns="http://www.w3.org/2000/svg">
<path d="M73.3296 63.3452L2.26949 1.67038" stroke="#7ED321" stroke-width="2" stroke-linecap="square"/>
<path d="M73.3296 84.7974L2.26949 23.1225" stroke="#7ED321" stroke-width="2" stroke-linecap="square"/>
<path d="M73.3296 106.25L2.26949 44.5747" stroke="#7ED321" stroke-width="2" stroke-linecap="square"/>
<path d="M73.3296 127.702L2.26949 66.0268" stroke="#7ED321" stroke-width="2" stroke-linecap="square"/>
<path d="M73.3296 170.606L2.26949 108.931" stroke="#7ED321" stroke-width="2" stroke-linecap="square"/>
<path d="M73.3296 214.851L2.26949 153.176" stroke="#7ED321" stroke-width="2" stroke-linecap="square"/>
<path d="M73.3296 257.755L2.26949 196.08" stroke="#7ED321" stroke-width="2" stroke-linecap="square"/>
<path d="M73.3296 322.111L2.26949 260.436" stroke="#7ED321" stroke-width="2" stroke-linecap="square"/>
<path d="M73.3296 149.154L2.26949 87.4787" stroke="#7ED321" stroke-width="2" stroke-linecap="square"/>
<path d="M73.3296 192.058L2.26949 130.383" stroke="#7ED321" stroke-width="2" stroke-linecap="square"/>
<path d="M73.3296 236.303L2.26949 174.628" stroke="#7ED321" stroke-width="2" stroke-linecap="square"/>
<path d="M73.3296 279.207L2.26949 217.532" stroke="#7ED321" stroke-width="2" stroke-linecap="square"/>
<path d="M73.3296 365.016L2.26949 303.341" stroke="#7ED321" stroke-width="2" stroke-linecap="square"/>
<path d="M73.3296 407.92L2.26949 346.245" stroke="#7ED321" stroke-width="2" stroke-linecap="square"/>
<path d="M73.3296 450.824L2.26949 389.149" stroke="#7ED321" stroke-width="2" stroke-linecap="square"/>
<path d="M73.3296 495.069L2.26949 433.394" stroke="#7ED321" stroke-width="2" stroke-linecap="square"/>
<path d="M73.3296 343.563L2.26949 281.889" stroke="#7ED321" stroke-width="2" stroke-linecap="square"/>
<path d="M73.3296 429.372L2.26949 367.697" stroke="#7ED321" stroke-width="2" stroke-linecap="square"/>
<path d="M73.3296 516.521L2.26949 454.846" stroke="#7ED321" stroke-width="2" stroke-linecap="square"/>
<path d="M73.3296 300.659L2.26949 238.984" stroke="#7ED321" stroke-width="2" stroke-linecap="square"/>
<path d="M73.3296 386.468L2.26949 324.793" stroke="#7ED321" stroke-width="2" stroke-linecap="square"/>
<path d="M73.3296 473.617L2.26949 411.942" stroke="#7ED321" stroke-width="2" stroke-linecap="square"/>
<path d="M73.3296 537.973L2.26949 476.298" stroke="#7ED321" stroke-width="2" stroke-linecap="square"/>
<path d="M73.3296 559.425L2.26949 497.75" stroke="#7ED321" stroke-width="2" stroke-linecap="square"/>
<path d="M73.3296 580.877L2.26949 519.203" stroke="#7ED321" stroke-width="2" stroke-linecap="square"/>
<path d="M73.3296 602.33L2.26949 540.655" stroke="#7ED321" stroke-width="2" stroke-linecap="square"/>
</svg>
