<svg width="135" height="1118" viewBox="0 0 135 1118" fill="none" xmlns="http://www.w3.org/2000/svg">
<path d="M133.259 116.255L1.74074 1.74468" stroke="#7ED321" stroke-width="2" stroke-linecap="square"/>
<path d="M133.259 157.255L1.74074 42.7447" stroke="#7ED321" stroke-width="2" stroke-linecap="square"/>
<path d="M133.259 196.255L1.74074 81.7447" stroke="#7ED321" stroke-width="2" stroke-linecap="square"/>
<path d="M133.259 236.255L1.74074 121.745" stroke="#7ED321" stroke-width="2" stroke-linecap="square"/>
<path d="M133.259 315.255L1.74074 200.745" stroke="#7ED321" stroke-width="2" stroke-linecap="square"/>
<path d="M133.259 397.255L1.74074 282.745" stroke="#7ED321" stroke-width="2" stroke-linecap="square"/>
<path d="M133.259 477.255L1.74074 362.745" stroke="#7ED321" stroke-width="2" stroke-linecap="square"/>
<path d="M133.259 597.255L1.74074 482.745" stroke="#7ED321" stroke-width="2" stroke-linecap="square"/>
<path d="M133.259 275.255L1.74074 160.745" stroke="#7ED321" stroke-width="2" stroke-linecap="square"/>
<path d="M133.259 355.255L1.74074 240.745" stroke="#7ED321" stroke-width="2" stroke-linecap="square"/>
<path d="M133.259 437.255L1.74074 322.745" stroke="#7ED321" stroke-width="2" stroke-linecap="square"/>
<path d="M133.259 516.255L1.74074 401.745" stroke="#7ED321" stroke-width="2" stroke-linecap="square"/>
<path d="M133.259 676.255L1.74074 561.745" stroke="#7ED321" stroke-width="2" stroke-linecap="square"/>
<path d="M133.259 755.255L1.74074 640.745" stroke="#7ED321" stroke-width="2" stroke-linecap="square"/>
<path d="M133.259 835.255L1.74074 720.745" stroke="#7ED321" stroke-width="2" stroke-linecap="square"/>
<path d="M133.259 918.255L1.74074 803.745" stroke="#7ED321" stroke-width="2" stroke-linecap="square"/>
<path d="M133.259 636.255L1.74074 521.745" stroke="#7ED321" stroke-width="2" stroke-linecap="square"/>
<path d="M133.259 796.255L1.74074 681.745" stroke="#7ED321" stroke-width="2" stroke-linecap="square"/>
<path d="M133.259 957.255L1.74074 842.745" stroke="#7ED321" stroke-width="2" stroke-linecap="square"/>
<path d="M133.259 557.255L1.74074 442.745" stroke="#7ED321" stroke-width="2" stroke-linecap="square"/>
<path d="M133.259 716.255L1.74074 601.745" stroke="#7ED321" stroke-width="2" stroke-linecap="square"/>
<path d="M133.259 877.255L1.74074 762.745" stroke="#7ED321" stroke-width="2" stroke-linecap="square"/>
<path d="M133.259 997.255L1.74074 882.745" stroke="#7ED321" stroke-width="2" stroke-linecap="square"/>
<path d="M133.259 1037.26L1.74074 922.745" stroke="#7ED321" stroke-width="2" stroke-linecap="square"/>
<path d="M133.259 1076.26L1.74074 961.745" stroke="#7ED321" stroke-width="2" stroke-linecap="square"/>
<path d="M133.259 1116.26L1.74074 1001.74" stroke="#7ED321" stroke-width="2" stroke-linecap="square"/>
</svg>
