<svg width="15" height="15" viewBox="0 0 15 15" fill="none" xmlns="http://www.w3.org/2000/svg">
<path fill-rule="evenodd" clip-rule="evenodd" d="M14.7304 12.9964C14.2674 14.4024 12.4535 15.1044 11.1575 14.9874C9.38751 14.8284 7.46155 13.8894 5.99957 12.8544C3.84961 11.3353 1.83764 8.98324 0.664663 6.48816C-0.165323 4.72511 -0.350319 2.55804 0.882659 0.949991C1.33865 0.355973 1.83164 0.0389635 2.57263 0.0029624C3.60061 -0.0470391 3.74461 0.539979 4.0976 1.45701C4.3606 2.14203 4.71059 2.84105 4.90759 3.55007C5.27458 4.87611 3.99161 4.93111 3.82961 6.01415C3.72861 6.69717 4.5566 7.6132 4.93059 8.10021C5.66358 9.05424 6.54456 9.87726 7.53854 10.5033C8.10753 10.8613 9.02652 11.5093 9.67851 11.1513C10.6825 10.6013 10.5865 8.90824 11.9915 9.48125C12.7185 9.77726 13.4214 10.2043 14.1164 10.5783C15.1894 11.1563 15.1394 11.7533 14.7304 12.9964C15.0364 12.0673 14.4244 13.9244 14.7304 12.9964Z" fill="#9B9B9B"/>
</svg>
