<svg width="90" height="90" viewBox="0 0 90 90" fill="none" xmlns="http://www.w3.org/2000/svg">
<mask id="mask0" mask-type="alpha" maskUnits="userSpaceOnUse" x="0" y="0" width="90" height="90">
<path fill-rule="evenodd" clip-rule="evenodd" d="M89.1138 37.224L37.3633 0.98784L0.842278 53.1453L52.593 89.3815L89.114 37.2241L52.5928 89.3813L0.842079 53.1451L37.3633 0.987305L89.1141 37.2236L89.1138 37.224Z" fill="white"/>
</mask>
<g mask="url(#mask0)">
<path fill-rule="evenodd" clip-rule="evenodd" d="M44.0959 32.1026C42.9328 32.7333 41.9927 33.6549 41.0222 34.5275C38.2911 36.9817 36.2003 39.9416 34.3594 43.0937C33.7981 44.0547 33.2378 45.0171 32.6774 45.9787C31.2049 45.6514 29.9176 46.0278 28.8022 47.0394C27.8157 47.934 27.0451 49.0179 26.2522 50.0727C24.6729 52.1739 23.2662 54.3947 21.8965 56.6377C21.8161 56.769 21.6271 56.9012 21.7534 57.0678C21.8443 57.1881 22.0236 57.1038 22.1624 57.0835C23.7115 56.8578 25.267 56.6656 26.808 56.3887C27.65 56.2375 28.5382 56.2461 29.3171 55.7998C30.7459 56.812 32.1752 57.8244 33.6043 58.8362C32.8196 60.7666 32.0349 62.6964 31.2509 64.6267C31.3031 64.6576 31.3556 64.6889 31.4085 64.7198C32.948 63.3265 34.4872 61.933 36.0266 60.5391C37.4755 61.5383 38.9249 62.5377 40.3738 63.5369C40.3634 63.6582 40.3265 63.7849 40.3468 63.9006C40.6356 65.5437 40.9221 67.1875 41.2308 68.8266C41.3771 69.6027 41.5688 70.3706 41.7454 71.1654C42.026 71.0192 42.1733 70.8498 42.3117 70.6686C44.032 68.4183 45.7358 66.1551 47.2801 63.7797C47.8748 62.8649 48.4939 61.9449 48.8613 60.9103C49.3543 59.5194 49.3279 58.1623 48.3789 56.9416C49.4167 55.6836 50.4656 54.4341 51.4899 53.1655C54.2756 49.7146 56.3359 45.8839 57.5374 41.6068C57.6217 41.3975 57.7293 41.1942 57.787 40.9775C59.1256 35.9825 59.5635 30.9104 59.1732 25.7703C59.1083 24.9215 59.083 24.9185 58.2622 25.1571C54.0855 26.3728 50.1185 28.0798 46.4272 30.4025C45.6174 30.9121 44.7043 31.3044 44.0959 32.1026ZM70.8387 63.3228C61.033 77.4262 41.673 81.2457 27.3314 71.6828C12.3248 61.6765 8.97674 41.3464 19.2177 26.903C29.3016 12.6812 49.3727 8.87048 63.9164 19.5918C77.5728 29.6598 80.8498 49.1841 70.8387 63.3228Z" fill="#324D5B"/>
</g>
<path fill-rule="evenodd" clip-rule="evenodd" d="M32.4084 46.81C32.9747 45.8372 33.5406 44.8642 34.108 43.8917C35.968 40.7037 38.0826 37.7102 40.8481 35.2309C41.831 34.3502 42.7826 33.4183 43.9611 32.7828C44.6862 33.3788 45.4118 33.9759 46.1373 34.5722L46.1473 34.5251C46.1644 34.5371 46.1803 34.5507 46.1979 34.5618C46.8285 34.9499 46.3504 35.3554 46.1848 35.7185C45.318 37.6167 45.5362 39.4206 46.8255 40.9921C48.1496 42.6054 49.9175 43.1727 51.9849 42.6395C53.1672 42.3345 54.0346 41.577 54.8017 40.6746C55.6991 41.3347 56.6752 41.8701 57.6268 42.4449C56.4185 46.7742 54.337 50.65 51.5191 54.1383C50.4824 55.4212 49.4214 56.6839 48.3711 57.9561C48.3094 58.0124 48.2436 58.0646 48.1863 58.1252C45.9793 60.4476 43.6256 62.5993 40.9364 64.3599C40.7342 64.4927 40.5533 64.7032 40.264 64.6164C38.791 63.6005 37.3173 62.5848 35.8445 61.5685C36.8526 60.5418 37.8695 59.5237 38.8661 58.4859C40.0876 57.213 41.0356 55.7803 41.2948 53.9903C41.3988 53.2719 41.3878 52.5369 40.7501 52.0431C40.0754 51.5203 39.3579 51.7687 38.6827 52.0904C38.3664 52.2409 38.0761 52.4551 37.7913 52.6651C36.563 53.5711 35.7654 54.813 35.1152 56.1618C34.5271 57.3818 33.9587 58.6119 33.3815 59.8376C31.9289 58.8086 30.4758 57.7794 29.0227 56.7501C28.7626 56.5481 28.8897 56.2992 28.9435 56.062C29.3383 54.3265 29.8804 52.6351 30.5638 50.9935C31.1491 49.5868 31.7912 48.2037 32.4084 46.81Z" fill="#FDFEFE"/>
<path fill-rule="evenodd" clip-rule="evenodd" d="M44.0869 32.5585C44.7151 31.733 45.6509 31.3213 46.4816 30.7908C50.2705 28.3716 54.3347 26.582 58.6079 25.2948C59.448 25.0419 59.474 25.0454 59.5321 25.9165C59.6971 28.3935 59.676 30.8567 59.4611 33.3053C59.2182 36.0727 58.7278 38.8213 57.9788 41.55C57.9179 41.7731 57.8063 41.983 57.7184 42.1987C56.7678 41.6272 55.7928 41.0958 54.8974 40.4358C54.9429 40.3398 54.9806 40.2391 55.0364 40.1497C56.9522 37.0821 55.0588 32.9955 51.541 32.5645C49.7551 32.346 48.2872 32.9828 47.0499 34.2618C46.7563 34.5662 46.5421 34.5822 46.2545 34.3484C45.5321 33.7516 44.8089 33.1549 44.0869 32.5585Z" fill="#9013FE"/>
<path fill-rule="evenodd" clip-rule="evenodd" d="M39.9059 64.4034C40.1819 64.4781 40.3651 64.2613 40.5658 64.121C43.2349 62.26 45.5956 60.0232 47.8217 57.622C47.8792 57.5598 47.9449 57.5051 48.0071 57.4462C48.8907 58.6405 48.8645 60.0079 48.3278 61.4293C47.9283 62.487 47.2861 63.4383 46.6675 64.3833C45.0624 66.8377 43.3052 69.1851 41.5323 71.5201C41.3896 71.7081 41.2387 71.8845 40.958 72.0427C40.8154 71.2481 40.6569 70.4811 40.5432 69.7042C40.3034 68.0633 40.0856 66.4168 39.8659 64.7715C39.85 64.6553 39.8914 64.5263 39.9059 64.4034Z" fill="#9013FE"/>
<path fill-rule="evenodd" clip-rule="evenodd" d="M32.189 46.3701C31.5833 47.7165 30.9542 49.0532 30.3786 50.4116C29.7065 51.9968 29.168 53.628 28.7687 55.2993C28.7143 55.5278 28.5901 55.7684 28.8342 55.9586C28.0788 56.4021 27.2229 56.4042 26.4094 56.5615C24.9214 56.8485 23.4204 57.054 21.9242 57.2919C21.7905 57.3129 21.6167 57.397 21.5305 57.2811C21.4107 57.1206 21.5944 56.9899 21.6735 56.8612C23.0197 54.6646 24.4016 52.4887 25.9486 50.4266C26.7252 49.3917 27.4806 48.3287 28.4419 47.4473C29.5285 46.4509 30.7737 46.0693 32.189 46.3701Z" fill="#9013FE"/>
<path fill-rule="evenodd" clip-rule="evenodd" d="M33.3316 59.1066C33.9203 57.8727 34.5001 56.6351 35.0998 55.4063C35.7623 54.0488 36.5696 52.7952 37.7979 51.8715C38.0824 51.6579 38.3726 51.4396 38.6878 51.2845C39.3604 50.9532 40.0739 50.6944 40.7341 51.207C41.358 51.6916 41.3583 52.4263 41.245 53.1461C40.9625 54.94 40.0043 56.3858 38.7767 57.6763C37.7764 58.7282 36.7554 59.7611 35.7432 60.8022C34.181 62.2322 32.6188 63.6622 31.0559 65.0923C31.0035 65.0612 30.9511 65.0302 30.8991 64.9994C31.7092 63.0353 32.5208 61.0709 33.3316 59.1066Z" fill="#9013FE"/>
<path fill-rule="evenodd" clip-rule="evenodd" d="M53.9389 36.9899C54.1492 36.0141 52.9844 34.5891 51.6893 34.1143C50.4726 33.6679 48.5181 34.2157 47.7154 35.2505C46.6907 36.5708 46.2709 38.1848 46.8835 39.2843C47.0934 39.1626 47.0431 38.9448 47.0771 38.7719C47.2567 37.8613 47.6824 37.0872 48.3631 36.4465C48.6479 36.1786 48.875 36.0143 49.2197 36.39C49.7331 36.9481 50.6277 36.6507 50.8 35.8707C50.8997 35.4192 51.0883 35.3764 51.442 35.4248C52.4994 35.5705 53.3149 36.1017 53.9389 36.9899ZM46.0049 34.7022C46.2808 34.9282 46.4909 34.9075 46.7856 34.5982C48.0256 33.2975 49.477 32.6309 51.2207 32.8084C54.6552 33.1588 56.4173 37.1838 54.4734 40.2802C54.4168 40.3705 54.3776 40.4716 54.3309 40.5681C53.5451 41.5054 52.6651 42.2997 51.4901 42.6482C49.4359 43.2566 47.714 42.7439 46.4651 41.1597C45.2483 39.6173 45.0942 37.8033 46.0131 35.8573C46.1881 35.4855 46.6728 35.0599 46.0653 34.6892C46.048 34.679 46.0328 34.6657 46.0167 34.6538L46.0049 34.7022Z" fill="#324D5B"/>
<path fill-rule="evenodd" clip-rule="evenodd" d="M54.5897 36.9642C53.8969 36.0607 53.0319 35.492 51.9453 35.2824C51.5817 35.2126 51.3923 35.2421 51.3197 35.6747C51.1943 36.4219 50.3019 36.6535 49.743 36.078C49.3677 35.6906 49.1468 35.8358 48.8738 36.0779C48.2215 36.657 47.8374 37.3823 47.713 38.2559C47.6894 38.4218 47.7547 38.6368 47.5486 38.7416C46.8538 37.6335 47.1779 36.0914 48.1372 34.8737C48.8886 33.9193 50.8448 33.5123 52.1131 34.0243C53.4631 34.5691 54.7413 36.0291 54.5897 36.9642Z" fill="#FDFEFE"/>
</svg>
