<svg width="48" height="54" viewBox="0 0 48 54" fill="none" xmlns="http://www.w3.org/2000/svg">
<mask id="mask0" mask-type="alpha" maskUnits="userSpaceOnUse" x="0" y="0" width="48" height="54">
<path fill-rule="evenodd" clip-rule="evenodd" d="M47.8874 53.0848H0V0.370117L47.8874 0.370117V53.0848Z" fill="white"/>
</mask>
<g mask="url(#mask0)">
<path fill-rule="evenodd" clip-rule="evenodd" d="M23.8387 48.1902C34.8407 48.1998 43.8791 39.5559 43.9023 29.0014C43.9259 18.2174 35.0187 9.47859 23.9931 9.46851C12.9911 9.45883 3.95309 18.1031 3.92949 28.6577C3.90589 39.4412 12.8131 48.1805 23.8387 48.1902ZM24.0135 -0.595546C24.8127 -0.595546 25.6175 -0.65483 26.4099 -0.581596C27.5971 -0.47194 28.4099 0.198013 28.6323 1.32674C28.8611 2.48686 28.2527 3.3056 27.1819 3.81359C26.6347 4.0732 25.7639 4.01275 25.9455 4.98959C26.1047 5.84631 26.8587 5.80485 27.4875 5.92807C28.3975 6.10592 29.3447 6.16327 30.2179 6.44264C31.0315 6.70341 31.5727 6.64064 32.1019 5.94434C32.5591 5.3422 33.2567 4.99501 34.0379 5.32011C34.8719 5.6669 35.6127 6.28338 35.4563 7.21954C35.2575 8.41142 36.0583 8.79464 36.8231 9.3003C44.8311 14.5913 48.8471 21.9597 47.6923 31.2774C46.3767 41.8951 40.0039 48.783 29.2343 51.4213C15.9155 54.6839 2.13548 45.527 0.282677 32.4201C-1.11452 22.5339 2.69988 14.9412 11.0131 9.29953C11.7723 8.78418 12.5735 8.40445 12.3771 7.21566C12.2219 6.27796 12.9639 5.6638 13.7975 5.31817C14.5803 4.99424 15.2715 5.3484 15.7339 5.94628C16.2647 6.63212 16.8023 6.68636 17.6211 6.44419C18.6927 6.12762 19.8347 6.04005 20.9387 5.81725C21.3943 5.72541 21.8499 5.56345 21.8923 4.98726C21.9291 4.48858 21.8115 4.15883 21.2211 3.99609C19.7627 3.59427 18.8383 2.6961 19.2591 1.1485C19.6695 -0.360733 20.9575 -0.693966 22.4143 -0.620732C22.9459 -0.593996 23.4803 -0.61647 24.0135 -0.61647V-0.595546Z" fill="#FFEC00"/>
</g>
<path fill-rule="evenodd" clip-rule="evenodd" d="M24.8878 24.483C24.8878 22.8997 24.8791 21.8138 24.8905 20.7279C24.8996 19.8605 24.6742 19.205 23.6053 19.1954C22.5444 19.1858 22.2845 19.8139 22.2865 20.6948C22.2936 23.7618 22.2932 26.8284 22.2849 29.8949C22.283 30.7135 22.3909 31.4736 23.3882 31.6586C24.3783 31.8425 24.942 31.4063 25.3189 30.4746C27.0476 26.2029 28.8422 21.9558 30.6073 17.6971C30.9807 16.797 31.1456 15.9038 29.9427 15.4837C28.8165 15.091 28.4791 15.8661 28.1393 16.7047C27.1377 19.1788 26.084 21.6334 24.8878 24.483ZM23.5117 48.5085C12.6087 48.4989 3.7998 39.8231 3.82353 29.1178C3.84648 18.6398 12.7847 10.0583 23.6643 10.0679C34.5681 10.0779 43.3766 18.7533 43.3529 29.459C43.3299 39.937 34.3917 48.5182 23.5117 48.5085Z" fill="#EEEFF3"/>
<path fill-rule="evenodd" clip-rule="evenodd" d="M28.3568 16.8978C28.6916 16.0513 29.0241 15.2689 30.1337 15.6654C31.319 16.0894 31.1565 16.991 30.7885 17.8995C30.2615 19.2022 29.7318 20.5037 29.2021 21.8052C27.9837 24.7987 26.7649 27.7918 25.5778 30.7971C25.2063 31.7375 24.6509 32.1778 23.6753 31.9922C22.6927 31.8054 22.5863 31.0382 22.5883 30.2119C22.5965 27.1166 22.5969 24.0212 22.5898 20.9254C22.5879 20.0363 22.844 19.4022 23.8893 19.4119C24.9425 19.4216 25.1646 20.0832 25.1557 20.9588C25.1444 22.0549 25.1529 23.151 25.1529 24.7492C26.3316 21.8728 27.3699 19.3952 28.3568 16.8978Z" fill="#ACB5BD"/>
</svg>
